<svg xmlns="http://www.w3.org/2000/svg" xmlns:xlink="http://www.w3.org/1999/xlink" width="1120" zoomAndPan="magnify" viewBox="0 0 840 839.999992" height="1120" preserveAspectRatio="xMidYMid meet" version="1.0"><defs><g/></defs><rect x="-84" width="1008" fill="#ffffff" y="-83.999999" height="1007.999991" fill-opacity="1"/><rect x="-84" width="1008" fill="#000000" y="-83.999999" height="1007.999991" fill-opacity="1"/><g fill="#f5f7f7" fill-opacity="1"><g transform="translate(110.769867, 653.152237)"><g><path d="M 23.046875 -16.4375 L 23.046875 0 L 19.578125 0 L 19.578125 -16.4375 L 0.34375 -47.75 L 4.15625 -47.75 L 21.421875 -19.640625 L 38.671875 -47.75 L 42.28125 -47.75 Z M 23.046875 -16.4375 "/></g></g></g><g fill="#f5f7f7" fill-opacity="1"><g transform="translate(149.303491, 653.152237)"><g><path d="M 21.140625 0.265625 C 17.773438 0.265625 14.738281 -0.503906 12.03125 -2.046875 C 9.332031 -3.585938 7.207031 -5.734375 5.65625 -8.484375 C 4.113281 -11.242188 3.34375 -14.347656 3.34375 -17.796875 C 3.34375 -21.253906 4.113281 -24.359375 5.65625 -27.109375 C 7.207031 -29.859375 9.332031 -32.003906 12.03125 -33.546875 C 14.738281 -35.097656 17.773438 -35.875 21.140625 -35.875 C 24.503906 -35.875 27.539062 -35.097656 30.25 -33.546875 C 32.957031 -32.003906 35.082031 -29.859375 36.625 -27.109375 C 38.164062 -24.359375 38.9375 -21.253906 38.9375 -17.796875 C 38.9375 -14.347656 38.164062 -11.242188 36.625 -8.484375 C 35.082031 -5.734375 32.957031 -3.585938 30.25 -2.046875 C 27.539062 -0.503906 24.503906 0.265625 21.140625 0.265625 Z M 21.140625 -2.796875 C 23.867188 -2.796875 26.3125 -3.429688 28.46875 -4.703125 C 30.632812 -5.972656 32.34375 -7.742188 33.59375 -10.015625 C 34.84375 -12.296875 35.46875 -14.890625 35.46875 -17.796875 C 35.46875 -20.710938 34.84375 -23.304688 33.59375 -25.578125 C 32.34375 -27.847656 30.632812 -29.617188 28.46875 -30.890625 C 26.3125 -32.171875 23.867188 -32.8125 21.140625 -32.8125 C 18.410156 -32.8125 15.96875 -32.171875 13.8125 -30.890625 C 11.65625 -29.617188 9.953125 -27.847656 8.703125 -25.578125 C 7.453125 -23.304688 6.828125 -20.710938 6.828125 -17.796875 C 6.828125 -14.890625 7.453125 -12.296875 8.703125 -10.015625 C 9.953125 -7.742188 11.65625 -5.972656 13.8125 -4.703125 C 15.96875 -3.429688 18.410156 -2.796875 21.140625 -2.796875 Z M 21.140625 -2.796875 "/></g></g></g><g fill="#f5f7f7" fill-opacity="1"><g transform="translate(191.588655, 653.152237)"><g><path d="M 38.390625 -35.609375 L 38.390625 0 L 35.125 0 L 35.125 -7.640625 C 33.9375 -5.140625 32.179688 -3.195312 29.859375 -1.8125 C 27.546875 -0.425781 24.820312 0.265625 21.6875 0.265625 C 17.050781 0.265625 13.414062 -1.023438 10.78125 -3.609375 C 8.144531 -6.203125 6.828125 -9.929688 6.828125 -14.796875 L 6.828125 -35.609375 L 10.234375 -35.609375 L 10.234375 -15.078125 C 10.234375 -11.078125 11.253906 -8.03125 13.296875 -5.9375 C 15.347656 -3.84375 18.238281 -2.796875 21.96875 -2.796875 C 25.96875 -2.796875 29.132812 -4.046875 31.46875 -6.546875 C 33.8125 -9.046875 34.984375 -12.410156 34.984375 -16.640625 L 34.984375 -35.609375 Z M 38.390625 -35.609375 "/></g></g></g><g fill="#f5f7f7" fill-opacity="1"><g transform="translate(237.215711, 653.152237)"><g><path d="M 10.5 -27.828125 C 11.59375 -30.421875 13.296875 -32.410156 15.609375 -33.796875 C 17.929688 -35.179688 20.753906 -35.875 24.078125 -35.875 L 24.078125 -32.53125 L 23.25 -32.59375 C 19.300781 -32.59375 16.210938 -31.351562 13.984375 -28.875 C 11.753906 -26.40625 10.640625 -22.960938 10.640625 -18.546875 L 10.640625 0 L 7.234375 0 L 7.234375 -35.609375 L 10.5 -35.609375 Z M 10.5 -27.828125 "/></g></g></g><g fill="#f5f7f7" fill-opacity="1"><g transform="translate(264.087252, 653.152237)"><g/></g></g><g fill="#f5f7f7" fill-opacity="1"><g transform="translate(281.615123, 653.152237)"><g><path d="M 20.875 0.34375 C 17.375 0.34375 14.039062 -0.257812 10.875 -1.46875 C 7.71875 -2.675781 5.253906 -4.234375 3.484375 -6.140625 L 5.046875 -8.734375 C 6.734375 -6.953125 8.992188 -5.503906 11.828125 -4.390625 C 14.671875 -3.285156 17.660156 -2.734375 20.796875 -2.734375 C 25.347656 -2.734375 28.78125 -3.59375 31.09375 -5.3125 C 33.414062 -7.039062 34.578125 -9.296875 34.578125 -12.078125 C 34.578125 -14.210938 33.960938 -15.914062 32.734375 -17.1875 C 31.503906 -18.457031 29.976562 -19.429688 28.15625 -20.109375 C 26.34375 -20.796875 23.890625 -21.503906 20.796875 -22.234375 C 17.296875 -23.097656 14.488281 -23.9375 12.375 -24.75 C 10.257812 -25.570312 8.460938 -26.832031 6.984375 -28.53125 C 5.515625 -30.238281 4.78125 -32.523438 4.78125 -35.390625 C 4.78125 -37.710938 5.390625 -39.835938 6.609375 -41.765625 C 7.835938 -43.703125 9.710938 -45.238281 12.234375 -46.375 C 14.765625 -47.507812 17.914062 -48.078125 21.6875 -48.078125 C 24.320312 -48.078125 26.910156 -47.691406 29.453125 -46.921875 C 32.003906 -46.148438 34.210938 -45.101562 36.078125 -43.78125 L 34.78125 -40.984375 C 32.875 -42.304688 30.769531 -43.304688 28.46875 -43.984375 C 26.175781 -44.671875 23.914062 -45.015625 21.6875 -45.015625 C 17.28125 -45.015625 13.9375 -44.125 11.65625 -42.34375 C 9.382812 -40.570312 8.25 -38.28125 8.25 -35.46875 C 8.25 -33.332031 8.863281 -31.625 10.09375 -30.34375 C 11.320312 -29.070312 12.84375 -28.09375 14.65625 -27.40625 C 16.476562 -26.726562 18.957031 -26.003906 22.09375 -25.234375 C 25.59375 -24.367188 28.390625 -23.523438 30.484375 -22.703125 C 32.578125 -21.890625 34.363281 -20.648438 35.84375 -18.984375 C 37.320312 -17.328125 38.0625 -15.09375 38.0625 -12.28125 C 38.0625 -9.957031 37.4375 -7.835938 36.1875 -5.921875 C 34.9375 -4.015625 33.015625 -2.492188 30.421875 -1.359375 C 27.828125 -0.222656 24.644531 0.34375 20.875 0.34375 Z M 20.875 0.34375 "/></g></g></g><g fill="#f5f7f7" fill-opacity="1"><g transform="translate(323.150051, 653.152237)"><g><path d="M 19.921875 -19.03125 L 10.640625 -10.578125 L 10.640625 0 L 7.234375 0 L 7.234375 -50.609375 L 10.640625 -50.609375 L 10.640625 -14.796875 L 33.421875 -35.609375 L 37.78125 -35.609375 L 22.4375 -21.21875 L 39.28125 0 L 35.0625 0 Z M 19.921875 -19.03125 "/></g></g></g><g fill="#f5f7f7" fill-opacity="1"><g transform="translate(362.63887, 653.152237)"><g><path d="M 7.234375 -35.609375 L 10.640625 -35.609375 L 10.640625 0 L 7.234375 0 Z M 8.921875 -44.265625 C 8.148438 -44.265625 7.492188 -44.523438 6.953125 -45.046875 C 6.410156 -45.566406 6.140625 -46.210938 6.140625 -46.984375 C 6.140625 -47.765625 6.410156 -48.425781 6.953125 -48.96875 C 7.492188 -49.507812 8.148438 -49.78125 8.921875 -49.78125 C 9.703125 -49.78125 10.363281 -49.519531 10.90625 -49 C 11.445312 -48.476562 11.71875 -47.832031 11.71875 -47.0625 C 11.71875 -46.289062 11.445312 -45.628906 10.90625 -45.078125 C 10.363281 -44.535156 9.703125 -44.265625 8.921875 -44.265625 Z M 8.921875 -44.265625 "/></g></g></g><g fill="#f5f7f7" fill-opacity="1"><g transform="translate(380.439551, 653.152237)"><g><path d="M 7.234375 -50.609375 L 10.640625 -50.609375 L 10.640625 0 L 7.234375 0 Z M 7.234375 -50.609375 "/></g></g></g><g fill="#f5f7f7" fill-opacity="1"><g transform="translate(398.240232, 653.152237)"><g><path d="M 7.234375 -50.609375 L 10.640625 -50.609375 L 10.640625 0 L 7.234375 0 Z M 7.234375 -50.609375 "/></g></g></g><g fill="#f5f7f7" fill-opacity="1"><g transform="translate(416.040912, 653.152237)"><g><path d="M 16.234375 0.265625 C 13.367188 0.265625 10.640625 -0.160156 8.046875 -1.015625 C 5.453125 -1.878906 3.429688 -2.972656 1.984375 -4.296875 L 3.546875 -7.03125 C 5.003906 -5.800781 6.878906 -4.773438 9.171875 -3.953125 C 11.472656 -3.140625 13.875 -2.734375 16.375 -2.734375 C 19.957031 -2.734375 22.601562 -3.320312 24.3125 -4.5 C 26.019531 -5.6875 26.875 -7.320312 26.875 -9.40625 C 26.875 -10.90625 26.40625 -12.085938 25.46875 -12.953125 C 24.539062 -13.816406 23.394531 -14.453125 22.03125 -14.859375 C 20.664062 -15.273438 18.78125 -15.710938 16.375 -16.171875 C 13.550781 -16.671875 11.273438 -17.210938 9.546875 -17.796875 C 7.816406 -18.390625 6.335938 -19.34375 5.109375 -20.65625 C 3.890625 -21.976562 3.28125 -23.800781 3.28125 -26.125 C 3.28125 -28.9375 4.445312 -31.265625 6.78125 -33.109375 C 9.125 -34.953125 12.457031 -35.875 16.78125 -35.875 C 19.050781 -35.875 21.300781 -35.554688 23.53125 -34.921875 C 25.757812 -34.285156 27.578125 -33.441406 28.984375 -32.390625 L 27.421875 -29.671875 C 25.960938 -30.710938 24.300781 -31.503906 22.4375 -32.046875 C 20.570312 -32.597656 18.660156 -32.875 16.703125 -32.875 C 13.390625 -32.875 10.890625 -32.257812 9.203125 -31.03125 C 7.523438 -29.800781 6.6875 -28.1875 6.6875 -26.1875 C 6.6875 -24.59375 7.160156 -23.351562 8.109375 -22.46875 C 9.066406 -21.582031 10.238281 -20.921875 11.625 -20.484375 C 13.007812 -20.054688 14.953125 -19.59375 17.453125 -19.09375 C 20.234375 -18.59375 22.472656 -18.054688 24.171875 -17.484375 C 25.878906 -16.921875 27.320312 -16.003906 28.5 -14.734375 C 29.6875 -13.460938 30.28125 -11.710938 30.28125 -9.484375 C 30.28125 -6.523438 29.050781 -4.160156 26.59375 -2.390625 C 24.144531 -0.617188 20.691406 0.265625 16.234375 0.265625 Z M 16.234375 0.265625 "/></g></g></g><g fill="#f5f7f7" fill-opacity="1"><g transform="translate(448.641403, 653.152237)"><g><path d="M 6.828125 -5.53125 C 7.640625 -5.53125 8.316406 -5.242188 8.859375 -4.671875 C 9.410156 -4.097656 9.6875 -3.425781 9.6875 -2.65625 C 9.6875 -2.207031 9.628906 -1.734375 9.515625 -1.234375 C 9.398438 -0.734375 9.253906 -0.160156 9.078125 0.484375 L 6.40625 9.75 L 3.953125 9.75 L 6.203125 0.140625 C 5.523438 -0.046875 4.976562 -0.375 4.5625 -0.84375 C 4.15625 -1.320312 3.953125 -1.925781 3.953125 -2.65625 C 3.953125 -3.476562 4.222656 -4.160156 4.765625 -4.703125 C 5.316406 -5.253906 6.003906 -5.53125 6.828125 -5.53125 Z M 6.828125 -5.53125 "/></g></g></g><g fill="#f5f7f7" fill-opacity="1"><g transform="translate(462.281781, 653.152237)"><g/></g></g><g fill="#f5f7f7" fill-opacity="1"><g transform="translate(479.809652, 653.152237)"><g><path d="M 25.4375 -47.75 C 31.4375 -47.75 36.140625 -46.328125 39.546875 -43.484375 C 42.960938 -40.640625 44.671875 -36.691406 44.671875 -31.640625 C 44.671875 -26.640625 42.960938 -22.71875 39.546875 -19.875 C 36.140625 -17.039062 31.4375 -15.625 25.4375 -15.625 L 11.796875 -15.625 L 11.796875 0 L 8.328125 0 L 8.328125 -47.75 Z M 25.4375 -18.75 C 30.53125 -18.75 34.414062 -19.863281 37.09375 -22.09375 C 39.78125 -24.320312 41.125 -27.503906 41.125 -31.640625 C 41.125 -35.785156 39.78125 -38.984375 37.09375 -41.234375 C 34.414062 -43.484375 30.53125 -44.609375 25.4375 -44.609375 L 11.796875 -44.609375 L 11.796875 -18.75 Z M 25.4375 -18.75 "/></g></g></g><g fill="#f5f7f7" fill-opacity="1"><g transform="translate(526.800539, 653.152237)"><g><path d="M 10.5 -27.828125 C 11.59375 -30.421875 13.296875 -32.410156 15.609375 -33.796875 C 17.929688 -35.179688 20.753906 -35.875 24.078125 -35.875 L 24.078125 -32.53125 L 23.25 -32.59375 C 19.300781 -32.59375 16.210938 -31.351562 13.984375 -28.875 C 11.753906 -26.40625 10.640625 -22.960938 10.640625 -18.546875 L 10.640625 0 L 7.234375 0 L 7.234375 -35.609375 L 10.5 -35.609375 Z M 10.5 -27.828125 "/></g></g></g><g fill="#f5f7f7" fill-opacity="1"><g transform="translate(552.717138, 653.152237)"><g><path d="M 21.140625 0.265625 C 17.773438 0.265625 14.738281 -0.503906 12.03125 -2.046875 C 9.332031 -3.585938 7.207031 -5.734375 5.65625 -8.484375 C 4.113281 -11.242188 3.34375 -14.347656 3.34375 -17.796875 C 3.34375 -21.253906 4.113281 -24.359375 5.65625 -27.109375 C 7.207031 -29.859375 9.332031 -32.003906 12.03125 -33.546875 C 14.738281 -35.097656 17.773438 -35.875 21.140625 -35.875 C 24.503906 -35.875 27.539062 -35.097656 30.25 -33.546875 C 32.957031 -32.003906 35.082031 -29.859375 36.625 -27.109375 C 38.164062 -24.359375 38.9375 -21.253906 38.9375 -17.796875 C 38.9375 -14.347656 38.164062 -11.242188 36.625 -8.484375 C 35.082031 -5.734375 32.957031 -3.585938 30.25 -2.046875 C 27.539062 -0.503906 24.503906 0.265625 21.140625 0.265625 Z M 21.140625 -2.796875 C 23.867188 -2.796875 26.3125 -3.429688 28.46875 -4.703125 C 30.632812 -5.972656 32.34375 -7.742188 33.59375 -10.015625 C 34.84375 -12.296875 35.46875 -14.890625 35.46875 -17.796875 C 35.46875 -20.710938 34.84375 -23.304688 33.59375 -25.578125 C 32.34375 -27.847656 30.632812 -29.617188 28.46875 -30.890625 C 26.3125 -32.171875 23.867188 -32.8125 21.140625 -32.8125 C 18.410156 -32.8125 15.96875 -32.171875 13.8125 -30.890625 C 11.65625 -29.617188 9.953125 -27.847656 8.703125 -25.578125 C 7.453125 -23.304688 6.828125 -20.710938 6.828125 -17.796875 C 6.828125 -14.890625 7.453125 -12.296875 8.703125 -10.015625 C 9.953125 -7.742188 11.65625 -5.972656 13.8125 -4.703125 C 15.96875 -3.429688 18.410156 -2.796875 21.140625 -2.796875 Z M 21.140625 -2.796875 "/></g></g></g><g fill="#f5f7f7" fill-opacity="1"><g transform="translate(593.979165, 653.152237)"><g><path d="M 35.8125 -35.609375 L 19.703125 0 L 16.234375 0 L 0.203125 -35.609375 L 3.8125 -35.609375 L 18 -3.75 L 32.328125 -35.609375 Z M 35.8125 -35.609375 "/></g></g></g><g fill="#f5f7f7" fill-opacity="1"><g transform="translate(628.966606, 653.152237)"><g><path d="M 37.3125 -16.984375 L 6.6875 -16.984375 C 6.78125 -14.210938 7.484375 -11.742188 8.796875 -9.578125 C 10.117188 -7.421875 11.90625 -5.75 14.15625 -4.5625 C 16.40625 -3.382812 18.9375 -2.796875 21.75 -2.796875 C 24.070312 -2.796875 26.222656 -3.210938 28.203125 -4.046875 C 30.179688 -4.890625 31.828125 -6.132812 33.140625 -7.78125 L 35.125 -5.53125 C 33.582031 -3.664062 31.640625 -2.234375 29.296875 -1.234375 C 26.953125 -0.234375 24.414062 0.265625 21.6875 0.265625 C 18.144531 0.265625 14.984375 -0.503906 12.203125 -2.046875 C 9.429688 -3.585938 7.257812 -5.722656 5.6875 -8.453125 C 4.125 -11.179688 3.34375 -14.296875 3.34375 -17.796875 C 3.34375 -21.253906 4.082031 -24.359375 5.5625 -27.109375 C 7.039062 -29.859375 9.070312 -32.003906 11.65625 -33.546875 C 14.25 -35.097656 17.160156 -35.875 20.390625 -35.875 C 23.617188 -35.875 26.515625 -35.113281 29.078125 -33.59375 C 31.648438 -32.070312 33.675781 -29.945312 35.15625 -27.21875 C 36.632812 -24.488281 37.375 -21.394531 37.375 -17.9375 Z M 20.390625 -32.875 C 17.890625 -32.875 15.640625 -32.316406 13.640625 -31.203125 C 11.640625 -30.085938 10.035156 -28.519531 8.828125 -26.5 C 7.628906 -24.476562 6.9375 -22.191406 6.75 -19.640625 L 34.03125 -19.640625 C 33.894531 -22.191406 33.210938 -24.46875 31.984375 -26.46875 C 30.753906 -28.46875 29.140625 -30.035156 27.140625 -31.171875 C 25.140625 -32.304688 22.890625 -32.875 20.390625 -32.875 Z M 20.390625 -32.875 "/></g></g></g><g fill="#f5f7f7" fill-opacity="1"><g transform="translate(669.683122, 653.152237)"><g><path d="M 24.625 -35.875 C 29.082031 -35.875 32.601562 -34.578125 35.1875 -31.984375 C 37.78125 -29.390625 39.078125 -25.660156 39.078125 -20.796875 L 39.078125 0 L 35.671875 0 L 35.671875 -20.53125 C 35.671875 -24.53125 34.65625 -27.578125 32.625 -29.671875 C 30.601562 -31.765625 27.773438 -32.8125 24.140625 -32.8125 C 19.960938 -32.8125 16.664062 -31.554688 14.25 -29.046875 C 11.84375 -26.546875 10.640625 -23.179688 10.640625 -18.953125 L 10.640625 0 L 7.234375 0 L 7.234375 -35.609375 L 10.5 -35.609375 L 10.5 -27.890625 C 11.726562 -30.390625 13.554688 -32.34375 15.984375 -33.75 C 18.421875 -35.164062 21.300781 -35.875 24.625 -35.875 Z M 24.625 -35.875 "/></g></g></g><g fill="#f5f7f7" fill-opacity="1"><g transform="translate(715.582988, 653.152237)"><g><path d="M 6.828125 0.265625 C 6.046875 0.265625 5.367188 -0.015625 4.796875 -0.578125 C 4.234375 -1.148438 3.953125 -1.84375 3.953125 -2.65625 C 3.953125 -3.476562 4.234375 -4.160156 4.796875 -4.703125 C 5.367188 -5.253906 6.046875 -5.53125 6.828125 -5.53125 C 7.597656 -5.53125 8.265625 -5.253906 8.828125 -4.703125 C 9.398438 -4.160156 9.6875 -3.476562 9.6875 -2.65625 C 9.6875 -1.84375 9.398438 -1.148438 8.828125 -0.578125 C 8.265625 -0.015625 7.597656 0.265625 6.828125 0.265625 Z M 6.828125 0.265625 "/></g></g></g><g fill="#2e8fff" fill-opacity="1"><g transform="translate(604.927336, 509.174675)"><g><path d="M 12.984375 -172.359375 L 51.078125 -172.359375 L 51.078125 0 L 12.984375 0 Z M 12.984375 -172.359375 "/></g></g></g><g fill="#2e8fff" fill-opacity="1"><g transform="translate(668.97521, 509.174675)"><g><path d="M 48.9375 1.28125 C 39.863281 1.28125 32.84375 -0.03125 27.875 -2.65625 C 22.90625 -5.28125 19.425781 -9.078125 17.4375 -14.046875 C 15.457031 -19.015625 14.46875 -25.46875 14.46875 -33.40625 L 14.46875 -100.234375 L 2.546875 -100.234375 L 2.546875 -123 L 14.46875 -123 L 14.46875 -160.453125 L 49.578125 -160.453125 L 49.578125 -123 L 67.03125 -123 L 67.03125 -100.234375 L 49.578125 -100.234375 L 49.578125 -36.8125 C 49.578125 -33.40625 50.535156 -30.882812 52.453125 -29.25 C 54.367188 -27.625 57.03125 -26.8125 60.4375 -26.8125 C 63.269531 -26.8125 66.390625 -27.09375 69.796875 -27.65625 L 69.796875 -0.421875 C 62.984375 0.710938 56.03125 1.28125 48.9375 1.28125 Z M 48.9375 1.28125 "/></g></g></g><g fill="#f5f7f7" fill-opacity="1"><g transform="translate(75.218186, 500.767696)"><g><path d="M 18.953125 -255.78125 L 104.84375 -255.78125 C 127.363281 -255.78125 144.203125 -249.410156 155.359375 -236.671875 C 166.515625 -223.941406 172.09375 -205.578125 172.09375 -181.578125 C 172.09375 -154.203125 165.617188 -135.195312 152.671875 -124.5625 C 139.734375 -113.9375 121.578125 -108.625 98.203125 -108.625 L 75.46875 -108.625 L 75.46875 0 L 18.953125 0 Z M 94.421875 -148.09375 C 104.316406 -148.09375 110.894531 -150.722656 114.15625 -155.984375 C 117.414062 -161.253906 119.046875 -170.097656 119.046875 -182.515625 C 119.046875 -193.890625 117.46875 -202.3125 114.3125 -207.78125 C 111.15625 -213.257812 104.421875 -216 94.109375 -216 L 75.46875 -216 L 75.46875 -148.09375 Z M 94.421875 -148.09375 "/></g></g></g><g fill="#f5f7f7" fill-opacity="1"><g transform="translate(222.53066, 509.174675)"><g><path d="M 11.28125 -123 L 45.96875 -123 L 45.96875 -102.5625 C 50.21875 -110.082031 54.328125 -115.613281 58.296875 -119.15625 C 62.273438 -122.707031 66.957031 -124.484375 72.34375 -124.484375 C 74.332031 -124.484375 76.109375 -124.269531 77.671875 -123.84375 L 77.671875 -89.375 C 73.410156 -91.070312 69.648438 -91.921875 66.390625 -91.921875 C 58.867188 -91.921875 52.0625 -87.953125 45.96875 -80.015625 L 45.96875 0 L 11.28125 0 Z M 11.28125 -123 "/></g></g></g><g fill="#f5f7f7" fill-opacity="1"><g transform="translate(304.026793, 509.174675)"><g><path d="M 51.28125 2.125 C 37.800781 2.125 27.265625 -1.273438 19.671875 -8.078125 C 12.085938 -14.890625 8.296875 -24.894531 8.296875 -38.09375 L 8.296875 -84.90625 C 8.296875 -98.101562 12.085938 -108.101562 19.671875 -114.90625 C 27.265625 -121.71875 37.800781 -125.125 51.28125 -125.125 C 64.757812 -125.125 75.328125 -121.679688 82.984375 -114.796875 C 90.648438 -107.921875 94.484375 -97.957031 94.484375 -84.90625 L 94.484375 -38.09375 C 94.484375 -25.039062 90.648438 -15.070312 82.984375 -8.1875 C 75.328125 -1.3125 64.757812 2.125 51.28125 2.125 Z M 51.5 -20.859375 C 54.757812 -20.859375 57.023438 -22.097656 58.296875 -24.578125 C 59.578125 -27.054688 60.21875 -30.78125 60.21875 -35.75 L 60.21875 -87.25 C 60.21875 -92.207031 59.578125 -95.925781 58.296875 -98.40625 C 57.023438 -100.894531 54.757812 -102.140625 51.5 -102.140625 C 48.238281 -102.140625 45.929688 -100.863281 44.578125 -98.3125 C 43.234375 -95.757812 42.5625 -92.070312 42.5625 -87.25 L 42.5625 -35.75 C 42.5625 -30.78125 43.234375 -27.054688 44.578125 -24.578125 C 45.929688 -22.097656 48.238281 -20.859375 51.5 -20.859375 Z M 51.5 -20.859375 "/></g></g></g><g fill="#f5f7f7" fill-opacity="1"><g transform="translate(406.801288, 509.174675)"><g><path d="M 2.125 -123 L 35.328125 -123 L 45.53125 -44.46875 L 54.90625 -123 L 88.09375 -123 L 62.78125 0 L 26.8125 0 Z M 2.125 -123 "/></g></g></g><g fill="#f5f7f7" fill-opacity="1"><g transform="translate(496.383199, 509.174675)"><g><path d="M 51.078125 2.125 C 37.597656 2.125 27.097656 -1.453125 19.578125 -8.609375 C 12.054688 -15.773438 8.296875 -25.882812 8.296875 -38.9375 L 8.296875 -84.0625 C 8.296875 -97.101562 12.054688 -107.207031 19.578125 -114.375 C 27.097656 -121.539062 37.597656 -125.125 51.078125 -125.125 C 64.691406 -125.125 74.898438 -121.644531 81.703125 -114.6875 C 88.515625 -107.738281 91.921875 -97.53125 91.921875 -84.0625 L 91.921875 -59.375 L 42.5625 -59.375 L 42.5625 -35.75 C 42.5625 -26.957031 45.398438 -22.5625 51.078125 -22.5625 C 57.035156 -22.5625 60.015625 -26.53125 60.015625 -34.46875 L 60.015625 -47.453125 L 91.921875 -47.453125 L 91.921875 -35.53125 C 91.921875 -23.195312 88.335938 -13.835938 81.171875 -7.453125 C 74.015625 -1.066406 63.984375 2.125 51.078125 2.125 Z M 60.015625 -75.546875 L 60.015625 -87.890625 C 60.015625 -92.421875 59.195312 -95.644531 57.5625 -97.5625 C 55.925781 -99.476562 53.691406 -100.4375 50.859375 -100.4375 C 48.160156 -100.4375 46.101562 -99.375 44.6875 -97.25 C 43.269531 -95.125 42.5625 -91.363281 42.5625 -85.96875 L 42.5625 -75.546875 Z M 60.015625 -75.546875 "/></g></g></g></svg>