<svg xmlns="http://www.w3.org/2000/svg" xmlns:xlink="http://www.w3.org/1999/xlink" width="1120" zoomAndPan="magnify" viewBox="0 0 840 839.999992" height="1120" preserveAspectRatio="xMidYMid meet" version="1.0"><defs><g/></defs><g fill="#f5f7f7" fill-opacity="1"><g transform="translate(224.150382, 561.981735)"><g><path d="M 14.609375 -10.40625 L 14.609375 0 L 12.40625 0 L 12.40625 -10.40625 L 0.21875 -30.234375 L 2.640625 -30.234375 L 13.5625 -12.4375 L 24.5 -30.234375 L 26.78125 -30.234375 Z M 14.609375 -10.40625 "/></g></g></g><g fill="#f5f7f7" fill-opacity="1"><g transform="translate(248.55549, 561.981735)"><g><path d="M 13.390625 0.171875 C 11.265625 0.171875 9.34375 -0.316406 7.625 -1.296875 C 5.914062 -2.273438 4.566406 -3.632812 3.578125 -5.375 C 2.597656 -7.125 2.109375 -9.09375 2.109375 -11.28125 C 2.109375 -13.46875 2.597656 -15.429688 3.578125 -17.171875 C 4.566406 -18.910156 5.914062 -20.269531 7.625 -21.25 C 9.34375 -22.226562 11.265625 -22.71875 13.390625 -22.71875 C 15.523438 -22.71875 17.445312 -22.226562 19.15625 -21.25 C 20.875 -20.269531 22.222656 -18.910156 23.203125 -17.171875 C 24.179688 -15.429688 24.671875 -13.46875 24.671875 -11.28125 C 24.671875 -9.09375 24.179688 -7.125 23.203125 -5.375 C 22.222656 -3.632812 20.875 -2.273438 19.15625 -1.296875 C 17.445312 -0.316406 15.523438 0.171875 13.390625 0.171875 Z M 13.390625 -1.765625 C 15.117188 -1.765625 16.664062 -2.164062 18.03125 -2.96875 C 19.40625 -3.78125 20.488281 -4.90625 21.28125 -6.34375 C 22.070312 -7.789062 22.46875 -9.4375 22.46875 -11.28125 C 22.46875 -13.125 22.070312 -14.765625 21.28125 -16.203125 C 20.488281 -17.640625 19.40625 -18.757812 18.03125 -19.5625 C 16.664062 -20.375 15.117188 -20.78125 13.390625 -20.78125 C 11.660156 -20.78125 10.113281 -20.375 8.75 -19.5625 C 7.382812 -18.757812 6.300781 -17.640625 5.5 -16.203125 C 4.707031 -14.765625 4.3125 -13.125 4.3125 -11.28125 C 4.3125 -9.4375 4.707031 -7.789062 5.5 -6.34375 C 6.300781 -4.90625 7.382812 -3.78125 8.75 -2.96875 C 10.113281 -2.164062 11.660156 -1.765625 13.390625 -1.765625 Z M 13.390625 -1.765625 "/></g></g></g><g fill="#f5f7f7" fill-opacity="1"><g transform="translate(275.336621, 561.981735)"><g><path d="M 24.328125 -22.546875 L 24.328125 0 L 22.25 0 L 22.25 -4.84375 C 21.5 -3.257812 20.390625 -2.023438 18.921875 -1.140625 C 17.453125 -0.265625 15.722656 0.171875 13.734375 0.171875 C 10.796875 0.171875 8.488281 -0.644531 6.8125 -2.28125 C 5.144531 -3.925781 4.3125 -6.289062 4.3125 -9.375 L 4.3125 -22.546875 L 6.484375 -22.546875 L 6.484375 -9.546875 C 6.484375 -7.015625 7.128906 -5.082031 8.421875 -3.75 C 9.722656 -2.425781 11.550781 -1.765625 13.90625 -1.765625 C 16.445312 -1.765625 18.457031 -2.554688 19.9375 -4.140625 C 21.414062 -5.734375 22.15625 -7.867188 22.15625 -10.546875 L 22.15625 -22.546875 Z M 24.328125 -22.546875 "/></g></g></g><g fill="#f5f7f7" fill-opacity="1"><g transform="translate(304.234324, 561.981735)"><g><path d="M 6.65625 -17.625 C 7.34375 -19.269531 8.421875 -20.53125 9.890625 -21.40625 C 11.359375 -22.28125 13.144531 -22.71875 15.25 -22.71875 L 15.25 -20.609375 L 14.734375 -20.65625 C 12.222656 -20.65625 10.257812 -19.867188 8.84375 -18.296875 C 7.4375 -16.722656 6.734375 -14.539062 6.734375 -11.75 L 6.734375 0 L 4.578125 0 L 4.578125 -22.546875 L 6.65625 -22.546875 Z M 6.65625 -17.625 "/></g></g></g><g fill="#f5f7f7" fill-opacity="1"><g transform="translate(321.253302, 561.981735)"><g/></g></g><g fill="#f5f7f7" fill-opacity="1"><g transform="translate(332.354505, 561.981735)"><g><path d="M 13.21875 0.21875 C 11 0.21875 8.890625 -0.160156 6.890625 -0.921875 C 4.890625 -1.691406 3.328125 -2.679688 2.203125 -3.890625 L 3.203125 -5.53125 C 4.265625 -4.40625 5.695312 -3.488281 7.5 -2.78125 C 9.300781 -2.082031 11.191406 -1.734375 13.171875 -1.734375 C 16.054688 -1.734375 18.234375 -2.28125 19.703125 -3.375 C 21.171875 -4.46875 21.90625 -5.890625 21.90625 -7.640625 C 21.90625 -8.992188 21.515625 -10.070312 20.734375 -10.875 C 19.960938 -11.6875 19 -12.304688 17.84375 -12.734375 C 16.6875 -13.171875 15.128906 -13.617188 13.171875 -14.078125 C 10.953125 -14.628906 9.171875 -15.160156 7.828125 -15.671875 C 6.492188 -16.191406 5.359375 -16.992188 4.421875 -18.078125 C 3.492188 -19.160156 3.03125 -20.609375 3.03125 -22.421875 C 3.03125 -23.890625 3.414062 -25.234375 4.1875 -26.453125 C 4.96875 -27.679688 6.15625 -28.65625 7.75 -29.375 C 9.351562 -30.09375 11.347656 -30.453125 13.734375 -30.453125 C 15.410156 -30.453125 17.050781 -30.207031 18.65625 -29.71875 C 20.269531 -29.226562 21.671875 -28.566406 22.859375 -27.734375 L 22.03125 -25.96875 C 20.820312 -26.800781 19.488281 -27.429688 18.03125 -27.859375 C 16.582031 -28.296875 15.148438 -28.515625 13.734375 -28.515625 C 10.941406 -28.515625 8.828125 -27.953125 7.390625 -26.828125 C 5.953125 -25.703125 5.234375 -24.25 5.234375 -22.46875 C 5.234375 -21.113281 5.617188 -20.03125 6.390625 -19.21875 C 7.171875 -18.414062 8.132812 -17.796875 9.28125 -17.359375 C 10.4375 -16.929688 12.007812 -16.472656 14 -15.984375 C 16.21875 -15.441406 17.988281 -14.910156 19.3125 -14.390625 C 20.632812 -13.867188 21.765625 -13.082031 22.703125 -12.03125 C 23.640625 -10.976562 24.109375 -9.5625 24.109375 -7.78125 C 24.109375 -6.3125 23.710938 -4.96875 22.921875 -3.75 C 22.128906 -2.539062 20.910156 -1.578125 19.265625 -0.859375 C 17.628906 -0.140625 15.613281 0.21875 13.21875 0.21875 Z M 13.21875 0.21875 "/></g></g></g><g fill="#f5f7f7" fill-opacity="1"><g transform="translate(358.660477, 561.981735)"><g><path d="M 12.609375 -12.046875 L 6.734375 -6.703125 L 6.734375 0 L 4.578125 0 L 4.578125 -32.0625 L 6.734375 -32.0625 L 6.734375 -9.375 L 21.171875 -22.546875 L 23.9375 -22.546875 L 14.21875 -13.4375 L 24.890625 0 L 22.203125 0 Z M 12.609375 -12.046875 "/></g></g></g><g fill="#f5f7f7" fill-opacity="1"><g transform="translate(383.670554, 561.981735)"><g><path d="M 4.578125 -22.546875 L 6.734375 -22.546875 L 6.734375 0 L 4.578125 0 Z M 5.671875 -28.03125 C 5.171875 -28.03125 4.75 -28.195312 4.40625 -28.53125 C 4.0625 -28.863281 3.890625 -29.273438 3.890625 -29.765625 C 3.890625 -30.253906 4.0625 -30.671875 4.40625 -31.015625 C 4.75 -31.359375 5.171875 -31.53125 5.671875 -31.53125 C 6.160156 -31.53125 6.578125 -31.363281 6.921875 -31.03125 C 7.265625 -30.707031 7.4375 -30.300781 7.4375 -29.8125 C 7.4375 -29.320312 7.265625 -28.898438 6.921875 -28.546875 C 6.578125 -28.203125 6.160156 -28.03125 5.671875 -28.03125 Z M 5.671875 -28.03125 "/></g></g></g><g fill="#f5f7f7" fill-opacity="1"><g transform="translate(394.94454, 561.981735)"><g><path d="M 4.578125 -32.0625 L 6.734375 -32.0625 L 6.734375 0 L 4.578125 0 Z M 4.578125 -32.0625 "/></g></g></g><g fill="#f5f7f7" fill-opacity="1"><g transform="translate(406.218526, 561.981735)"><g><path d="M 4.578125 -32.0625 L 6.734375 -32.0625 L 6.734375 0 L 4.578125 0 Z M 4.578125 -32.0625 "/></g></g></g><g fill="#f5f7f7" fill-opacity="1"><g transform="translate(417.492512, 561.981735)"><g><path d="M 10.28125 0.171875 C 8.46875 0.171875 6.738281 -0.0976562 5.09375 -0.640625 C 3.457031 -1.191406 2.175781 -1.882812 1.25 -2.71875 L 2.25 -4.453125 C 3.164062 -3.671875 4.351562 -3.019531 5.8125 -2.5 C 7.269531 -1.988281 8.789062 -1.734375 10.375 -1.734375 C 12.644531 -1.734375 14.316406 -2.101562 15.390625 -2.84375 C 16.472656 -3.59375 17.015625 -4.632812 17.015625 -5.96875 C 17.015625 -6.914062 16.71875 -7.660156 16.125 -8.203125 C 15.539062 -8.753906 14.816406 -9.160156 13.953125 -9.421875 C 13.085938 -9.679688 11.894531 -9.953125 10.375 -10.234375 C 8.582031 -10.554688 7.140625 -10.90625 6.046875 -11.28125 C 4.953125 -11.65625 4.015625 -12.257812 3.234375 -13.09375 C 2.460938 -13.925781 2.078125 -15.078125 2.078125 -16.546875 C 2.078125 -18.328125 2.816406 -19.800781 4.296875 -20.96875 C 5.785156 -22.132812 7.894531 -22.71875 10.625 -22.71875 C 12.0625 -22.71875 13.484375 -22.515625 14.890625 -22.109375 C 16.304688 -21.710938 17.460938 -21.179688 18.359375 -20.515625 L 17.375 -18.796875 C 16.445312 -19.453125 15.390625 -19.953125 14.203125 -20.296875 C 13.023438 -20.648438 11.816406 -20.828125 10.578125 -20.828125 C 8.484375 -20.828125 6.898438 -20.4375 5.828125 -19.65625 C 4.765625 -18.875 4.234375 -17.851562 4.234375 -16.59375 C 4.234375 -15.582031 4.535156 -14.796875 5.140625 -14.234375 C 5.742188 -13.671875 6.484375 -13.253906 7.359375 -12.984375 C 8.242188 -12.710938 9.476562 -12.414062 11.0625 -12.09375 C 12.820312 -11.78125 14.238281 -11.441406 15.3125 -11.078125 C 16.394531 -10.722656 17.3125 -10.140625 18.0625 -9.328125 C 18.8125 -8.523438 19.1875 -7.414062 19.1875 -6 C 19.1875 -4.132812 18.40625 -2.640625 16.84375 -1.515625 C 15.289062 -0.390625 13.101562 0.171875 10.28125 0.171875 Z M 10.28125 0.171875 "/></g></g></g><g fill="#f5f7f7" fill-opacity="1"><g transform="translate(438.139896, 561.981735)"><g><path d="M 4.3125 -3.5 C 4.832031 -3.5 5.265625 -3.316406 5.609375 -2.953125 C 5.960938 -2.597656 6.140625 -2.175781 6.140625 -1.6875 C 6.140625 -1.394531 6.101562 -1.085938 6.03125 -0.765625 C 5.957031 -0.453125 5.863281 -0.0976562 5.75 0.296875 L 4.0625 6.171875 L 2.5 6.171875 L 3.9375 0.09375 C 3.5 -0.03125 3.148438 -0.242188 2.890625 -0.546875 C 2.628906 -0.847656 2.5 -1.226562 2.5 -1.6875 C 2.5 -2.207031 2.671875 -2.640625 3.015625 -2.984375 C 3.367188 -3.328125 3.800781 -3.5 4.3125 -3.5 Z M 4.3125 -3.5 "/></g></g></g><g fill="#f5f7f7" fill-opacity="1"><g transform="translate(446.778972, 561.981735)"><g/></g></g><g fill="#f5f7f7" fill-opacity="1"><g transform="translate(457.880175, 561.981735)"><g><path d="M 16.109375 -30.234375 C 19.910156 -30.234375 22.890625 -29.332031 25.046875 -27.53125 C 27.210938 -25.738281 28.296875 -23.242188 28.296875 -20.046875 C 28.296875 -16.878906 27.210938 -14.394531 25.046875 -12.59375 C 22.890625 -10.789062 19.910156 -9.890625 16.109375 -9.890625 L 7.46875 -9.890625 L 7.46875 0 L 5.265625 0 L 5.265625 -30.234375 Z M 16.109375 -11.875 C 19.335938 -11.875 21.800781 -12.578125 23.5 -13.984375 C 25.195312 -15.398438 26.046875 -17.421875 26.046875 -20.046875 C 26.046875 -22.671875 25.195312 -24.691406 23.5 -26.109375 C 21.800781 -27.535156 19.335938 -28.25 16.109375 -28.25 L 7.46875 -28.25 L 7.46875 -11.875 Z M 16.109375 -11.875 "/></g></g></g><g fill="#f5f7f7" fill-opacity="1"><g transform="translate(487.641655, 561.981735)"><g><path d="M 6.65625 -17.625 C 7.34375 -19.269531 8.421875 -20.53125 9.890625 -21.40625 C 11.359375 -22.28125 13.144531 -22.71875 15.25 -22.71875 L 15.25 -20.609375 L 14.734375 -20.65625 C 12.222656 -20.65625 10.257812 -19.867188 8.84375 -18.296875 C 7.4375 -16.722656 6.734375 -14.539062 6.734375 -11.75 L 6.734375 0 L 4.578125 0 L 4.578125 -22.546875 L 6.65625 -22.546875 Z M 6.65625 -17.625 "/></g></g></g><g fill="#f5f7f7" fill-opacity="1"><g transform="translate(504.055824, 561.981735)"><g><path d="M 13.390625 0.171875 C 11.265625 0.171875 9.34375 -0.316406 7.625 -1.296875 C 5.914062 -2.273438 4.566406 -3.632812 3.578125 -5.375 C 2.597656 -7.125 2.109375 -9.09375 2.109375 -11.28125 C 2.109375 -13.46875 2.597656 -15.429688 3.578125 -17.171875 C 4.566406 -18.910156 5.914062 -20.269531 7.625 -21.25 C 9.34375 -22.226562 11.265625 -22.71875 13.390625 -22.71875 C 15.523438 -22.71875 17.445312 -22.226562 19.15625 -21.25 C 20.875 -20.269531 22.222656 -18.910156 23.203125 -17.171875 C 24.179688 -15.429688 24.671875 -13.46875 24.671875 -11.28125 C 24.671875 -9.09375 24.179688 -7.125 23.203125 -5.375 C 22.222656 -3.632812 20.875 -2.273438 19.15625 -1.296875 C 17.445312 -0.316406 15.523438 0.171875 13.390625 0.171875 Z M 13.390625 -1.765625 C 15.117188 -1.765625 16.664062 -2.164062 18.03125 -2.96875 C 19.40625 -3.78125 20.488281 -4.90625 21.28125 -6.34375 C 22.070312 -7.789062 22.46875 -9.4375 22.46875 -11.28125 C 22.46875 -13.125 22.070312 -14.765625 21.28125 -16.203125 C 20.488281 -17.640625 19.40625 -18.757812 18.03125 -19.5625 C 16.664062 -20.375 15.117188 -20.78125 13.390625 -20.78125 C 11.660156 -20.78125 10.113281 -20.375 8.75 -19.5625 C 7.382812 -18.757812 6.300781 -17.640625 5.5 -16.203125 C 4.707031 -14.765625 4.3125 -13.125 4.3125 -11.28125 C 4.3125 -9.4375 4.707031 -7.789062 5.5 -6.34375 C 6.300781 -4.90625 7.382812 -3.78125 8.75 -2.96875 C 10.113281 -2.164062 11.660156 -1.765625 13.390625 -1.765625 Z M 13.390625 -1.765625 "/></g></g></g><g fill="#f5f7f7" fill-opacity="1"><g transform="translate(530.188955, 561.981735)"><g><path d="M 22.6875 -22.546875 L 12.484375 0 L 10.28125 0 L 0.125 -22.546875 L 2.421875 -22.546875 L 11.40625 -2.375 L 20.484375 -22.546875 Z M 22.6875 -22.546875 "/></g></g></g><g fill="#f5f7f7" fill-opacity="1"><g transform="translate(552.348103, 561.981735)"><g><path d="M 23.625 -10.75 L 4.234375 -10.75 C 4.285156 -9 4.726562 -7.4375 5.5625 -6.0625 C 6.40625 -4.695312 7.539062 -3.640625 8.96875 -2.890625 C 10.394531 -2.140625 12 -1.765625 13.78125 -1.765625 C 15.25 -1.765625 16.609375 -2.03125 17.859375 -2.5625 C 19.117188 -3.101562 20.164062 -3.890625 21 -4.921875 L 22.25 -3.5 C 21.269531 -2.320312 20.035156 -1.414062 18.546875 -0.78125 C 17.066406 -0.144531 15.460938 0.171875 13.734375 0.171875 C 11.492188 0.171875 9.492188 -0.316406 7.734375 -1.296875 C 5.972656 -2.273438 4.59375 -3.628906 3.59375 -5.359375 C 2.601562 -7.085938 2.109375 -9.0625 2.109375 -11.28125 C 2.109375 -13.46875 2.578125 -15.429688 3.515625 -17.171875 C 4.453125 -18.910156 5.738281 -20.269531 7.375 -21.25 C 9.019531 -22.226562 10.867188 -22.71875 12.921875 -22.71875 C 14.960938 -22.71875 16.796875 -22.234375 18.421875 -21.265625 C 20.046875 -20.304688 21.328125 -18.960938 22.265625 -17.234375 C 23.203125 -15.503906 23.671875 -13.546875 23.671875 -11.359375 Z M 12.921875 -20.828125 C 11.335938 -20.828125 9.910156 -20.472656 8.640625 -19.765625 C 7.367188 -19.054688 6.351562 -18.0625 5.59375 -16.78125 C 4.832031 -15.5 4.394531 -14.050781 4.28125 -12.4375 L 21.5625 -12.4375 C 21.46875 -14.050781 21.03125 -15.488281 20.25 -16.75 C 19.476562 -18.019531 18.457031 -19.015625 17.1875 -19.734375 C 15.925781 -20.460938 14.503906 -20.828125 12.921875 -20.828125 Z M 12.921875 -20.828125 "/></g></g></g><g fill="#f5f7f7" fill-opacity="1"><g transform="translate(578.135737, 561.981735)"><g><path d="M 15.59375 -22.71875 C 18.414062 -22.71875 20.644531 -21.894531 22.28125 -20.25 C 23.925781 -18.613281 24.75 -16.253906 24.75 -13.171875 L 24.75 0 L 22.59375 0 L 22.59375 -13 C 22.59375 -15.539062 21.953125 -17.472656 20.671875 -18.796875 C 19.390625 -20.117188 17.597656 -20.78125 15.296875 -20.78125 C 12.640625 -20.78125 10.546875 -19.988281 9.015625 -18.40625 C 7.492188 -16.820312 6.734375 -14.691406 6.734375 -12.015625 L 6.734375 0 L 4.578125 0 L 4.578125 -22.546875 L 6.65625 -22.546875 L 6.65625 -17.671875 C 7.425781 -19.253906 8.582031 -20.488281 10.125 -21.375 C 11.664062 -22.269531 13.488281 -22.71875 15.59375 -22.71875 Z M 15.59375 -22.71875 "/></g></g></g><g fill="#f5f7f7" fill-opacity="1"><g transform="translate(607.206224, 561.981735)"><g><path d="M 4.3125 0.171875 C 3.820312 0.171875 3.394531 -0.00390625 3.03125 -0.359375 C 2.675781 -0.722656 2.5 -1.164062 2.5 -1.6875 C 2.5 -2.207031 2.675781 -2.640625 3.03125 -2.984375 C 3.394531 -3.328125 3.820312 -3.5 4.3125 -3.5 C 4.8125 -3.5 5.238281 -3.328125 5.59375 -2.984375 C 5.957031 -2.640625 6.140625 -2.207031 6.140625 -1.6875 C 6.140625 -1.164062 5.957031 -0.722656 5.59375 -0.359375 C 5.238281 -0.00390625 4.8125 0.171875 4.3125 0.171875 Z M 4.3125 0.171875 "/></g></g></g><g fill="#2e8fff" fill-opacity="1"><g transform="translate(537.122969, 470.794126)"><g><path d="M 8.21875 -109.171875 L 32.34375 -109.171875 L 32.34375 0 L 8.21875 0 Z M 8.21875 -109.171875 "/></g></g></g><g fill="#2e8fff" fill-opacity="1"><g transform="translate(577.68742, 470.794126)"><g><path d="M 31 0.8125 C 25.25 0.8125 20.800781 -0.015625 17.65625 -1.671875 C 14.507812 -3.335938 12.304688 -5.742188 11.046875 -8.890625 C 9.796875 -12.035156 9.171875 -16.125 9.171875 -21.15625 L 9.171875 -63.484375 L 1.625 -63.484375 L 1.625 -77.90625 L 9.171875 -77.90625 L 9.171875 -101.625 L 31.40625 -101.625 L 31.40625 -77.90625 L 42.453125 -77.90625 L 42.453125 -63.484375 L 31.40625 -63.484375 L 31.40625 -23.3125 C 31.40625 -21.15625 32.007812 -19.5625 33.21875 -18.53125 C 34.4375 -17.5 36.125 -16.984375 38.28125 -16.984375 C 40.070312 -16.984375 42.046875 -17.160156 44.203125 -17.515625 L 44.203125 -0.265625 C 39.890625 0.453125 35.488281 0.8125 31 0.8125 Z M 31 0.8125 "/></g></g></g><g fill="#f5f7f7" fill-opacity="1"><g transform="translate(201.633875, 465.469597)"><g><path d="M 12 -162 L 66.40625 -162 C 80.664062 -162 91.328125 -157.960938 98.390625 -149.890625 C 105.460938 -141.828125 109 -130.195312 109 -115 C 109 -97.664062 104.898438 -85.628906 96.703125 -78.890625 C 88.503906 -72.160156 77.003906 -68.796875 62.203125 -68.796875 L 47.796875 -68.796875 L 47.796875 0 L 12 0 Z M 59.796875 -93.796875 C 66.066406 -93.796875 70.234375 -95.460938 72.296875 -98.796875 C 74.367188 -102.128906 75.40625 -107.726562 75.40625 -115.59375 C 75.40625 -122.800781 74.40625 -128.132812 72.40625 -131.59375 C 70.40625 -135.0625 66.132812 -136.796875 59.59375 -136.796875 L 47.796875 -136.796875 L 47.796875 -93.796875 Z M 59.796875 -93.796875 "/></g></g></g><g fill="#f5f7f7" fill-opacity="1"><g transform="translate(294.933622, 470.794126)"><g><path d="M 7.140625 -77.90625 L 29.109375 -77.90625 L 29.109375 -64.96875 C 31.804688 -69.726562 34.410156 -73.226562 36.921875 -75.46875 C 39.441406 -77.71875 42.410156 -78.84375 45.828125 -78.84375 C 47.085938 -78.84375 48.207031 -78.707031 49.1875 -78.4375 L 49.1875 -56.609375 C 46.5 -57.679688 44.117188 -58.21875 42.046875 -58.21875 C 37.285156 -58.21875 32.972656 -55.703125 29.109375 -50.671875 L 29.109375 0 L 7.140625 0 Z M 7.140625 -77.90625 "/></g></g></g><g fill="#f5f7f7" fill-opacity="1"><g transform="translate(346.548854, 470.794126)"><g><path d="M 32.484375 1.34375 C 23.941406 1.34375 17.265625 -0.8125 12.453125 -5.125 C 7.648438 -9.4375 5.25 -15.769531 5.25 -24.125 L 5.25 -53.78125 C 5.25 -62.132812 7.648438 -68.46875 12.453125 -72.78125 C 17.265625 -77.09375 23.941406 -79.25 32.484375 -79.25 C 41.015625 -79.25 47.707031 -77.066406 52.5625 -72.703125 C 57.414062 -68.347656 59.84375 -62.039062 59.84375 -53.78125 L 59.84375 -24.125 C 59.84375 -15.851562 57.414062 -9.539062 52.5625 -5.1875 C 47.707031 -0.832031 41.015625 1.34375 32.484375 1.34375 Z M 32.609375 -13.203125 C 34.679688 -13.203125 36.117188 -13.988281 36.921875 -15.5625 C 37.734375 -17.132812 38.140625 -19.492188 38.140625 -22.640625 L 38.140625 -55.265625 C 38.140625 -58.410156 37.734375 -60.765625 36.921875 -62.328125 C 36.117188 -63.898438 34.679688 -64.6875 32.609375 -64.6875 C 30.546875 -64.6875 29.085938 -63.878906 28.234375 -62.265625 C 27.378906 -60.648438 26.953125 -58.316406 26.953125 -55.265625 L 26.953125 -22.640625 C 26.953125 -19.492188 27.378906 -17.132812 28.234375 -15.5625 C 29.085938 -13.988281 30.546875 -13.203125 32.609375 -13.203125 Z M 32.609375 -13.203125 "/></g></g></g><g fill="#f5f7f7" fill-opacity="1"><g transform="translate(411.640648, 470.794126)"><g><path d="M 1.34375 -77.90625 L 22.375 -77.90625 L 28.84375 -28.171875 L 34.78125 -77.90625 L 55.796875 -77.90625 L 39.765625 0 L 16.984375 0 Z M 1.34375 -77.90625 "/></g></g></g><g fill="#f5f7f7" fill-opacity="1"><g transform="translate(468.376974, 470.794126)"><g><path d="M 32.34375 1.34375 C 23.8125 1.34375 17.160156 -0.921875 12.390625 -5.453125 C 7.628906 -9.992188 5.25 -16.398438 5.25 -24.671875 L 5.25 -53.234375 C 5.25 -61.503906 7.628906 -67.90625 12.390625 -72.4375 C 17.160156 -76.976562 23.8125 -79.25 32.34375 -79.25 C 40.96875 -79.25 47.4375 -77.046875 51.75 -72.640625 C 56.0625 -68.242188 58.21875 -61.773438 58.21875 -53.234375 L 58.21875 -37.609375 L 26.953125 -37.609375 L 26.953125 -22.640625 C 26.953125 -17.066406 28.75 -14.28125 32.34375 -14.28125 C 36.125 -14.28125 38.015625 -16.796875 38.015625 -21.828125 L 38.015625 -30.0625 L 58.21875 -30.0625 L 58.21875 -22.515625 C 58.21875 -14.691406 55.945312 -8.757812 51.40625 -4.71875 C 46.875 -0.675781 40.519531 1.34375 32.34375 1.34375 Z M 38.015625 -47.84375 L 38.015625 -55.671875 C 38.015625 -58.546875 37.492188 -60.585938 36.453125 -61.796875 C 35.421875 -63.003906 34.007812 -63.609375 32.21875 -63.609375 C 30.507812 -63.609375 29.203125 -62.9375 28.296875 -61.59375 C 27.398438 -60.25 26.953125 -57.867188 26.953125 -54.453125 L 26.953125 -47.84375 Z M 38.015625 -47.84375 "/></g></g></g></svg>