<svg xmlns="http://www.w3.org/2000/svg" xmlns:xlink="http://www.w3.org/1999/xlink" width="1120" zoomAndPan="magnify" viewBox="0 0 840 839.999992" height="1120" preserveAspectRatio="xMidYMid meet" version="1.0"><defs><g/></defs><rect x="-84" width="1008" fill="#ffffff" y="-83.999999" height="1007.999991" fill-opacity="1"/><rect x="-84" width="1008" fill="#ffffff" y="-83.999999" height="1007.999991" fill-opacity="1"/><g fill="#444444" fill-opacity="1"><g transform="translate(145.624962, 662.548221)"><g><path d="M 20.453125 -14.578125 L 20.453125 0 L 17.375 0 L 17.375 -14.578125 L 0.296875 -42.359375 L 3.6875 -42.359375 L 19 -17.421875 L 34.3125 -42.359375 L 37.515625 -42.359375 Z M 20.453125 -14.578125 "/></g></g></g><g fill="#444444" fill-opacity="1"><g transform="translate(179.815883, 662.548221)"><g><path d="M 18.765625 0.234375 C 15.773438 0.234375 13.078125 -0.445312 10.671875 -1.8125 C 8.273438 -3.1875 6.390625 -5.09375 5.015625 -7.53125 C 3.648438 -9.976562 2.96875 -12.734375 2.96875 -15.796875 C 2.96875 -18.859375 3.648438 -21.609375 5.015625 -24.046875 C 6.390625 -26.492188 8.273438 -28.398438 10.671875 -29.765625 C 13.078125 -31.140625 15.773438 -31.828125 18.765625 -31.828125 C 21.742188 -31.828125 24.429688 -31.140625 26.828125 -29.765625 C 29.234375 -28.398438 31.117188 -26.492188 32.484375 -24.046875 C 33.859375 -21.609375 34.546875 -18.859375 34.546875 -15.796875 C 34.546875 -12.734375 33.859375 -9.976562 32.484375 -7.53125 C 31.117188 -5.09375 29.234375 -3.1875 26.828125 -1.8125 C 24.429688 -0.445312 21.742188 0.234375 18.765625 0.234375 Z M 18.765625 -2.484375 C 21.179688 -2.484375 23.347656 -3.046875 25.265625 -4.171875 C 27.179688 -5.304688 28.691406 -6.878906 29.796875 -8.890625 C 30.910156 -10.910156 31.46875 -13.210938 31.46875 -15.796875 C 31.46875 -18.378906 30.910156 -20.675781 29.796875 -22.6875 C 28.691406 -24.707031 27.179688 -26.28125 25.265625 -27.40625 C 23.347656 -28.539062 21.179688 -29.109375 18.765625 -29.109375 C 16.335938 -29.109375 14.164062 -28.539062 12.25 -27.40625 C 10.332031 -26.28125 8.816406 -24.707031 7.703125 -22.6875 C 6.597656 -20.675781 6.046875 -18.378906 6.046875 -15.796875 C 6.046875 -13.210938 6.597656 -10.910156 7.703125 -8.890625 C 8.816406 -6.878906 10.332031 -5.304688 12.25 -4.171875 C 14.164062 -3.046875 16.335938 -2.484375 18.765625 -2.484375 Z M 18.765625 -2.484375 "/></g></g></g><g fill="#444444" fill-opacity="1"><g transform="translate(217.335117, 662.548221)"><g><path d="M 34.0625 -31.59375 L 34.0625 0 L 31.171875 0 L 31.171875 -6.78125 C 30.117188 -4.5625 28.5625 -2.835938 26.5 -1.609375 C 24.445312 -0.378906 22.03125 0.234375 19.25 0.234375 C 15.132812 0.234375 11.90625 -0.910156 9.5625 -3.203125 C 7.21875 -5.503906 6.046875 -8.8125 6.046875 -13.125 L 6.046875 -31.59375 L 9.078125 -31.59375 L 9.078125 -13.375 C 9.078125 -9.820312 9.984375 -7.117188 11.796875 -5.265625 C 13.617188 -3.410156 16.179688 -2.484375 19.484375 -2.484375 C 23.035156 -2.484375 25.847656 -3.59375 27.921875 -5.8125 C 30.003906 -8.03125 31.046875 -11.015625 31.046875 -14.765625 L 31.046875 -31.59375 Z M 34.0625 -31.59375 "/></g></g></g><g fill="#444444" fill-opacity="1"><g transform="translate(257.819581, 662.548221)"><g><path d="M 9.3125 -24.6875 C 10.28125 -26.988281 11.789062 -28.753906 13.84375 -29.984375 C 15.90625 -31.210938 18.410156 -31.828125 21.359375 -31.828125 L 21.359375 -28.859375 L 20.640625 -28.921875 C 17.128906 -28.921875 14.382812 -27.820312 12.40625 -25.625 C 10.425781 -23.425781 9.4375 -20.367188 9.4375 -16.453125 L 9.4375 0 L 6.421875 0 L 6.421875 -31.59375 L 9.3125 -31.59375 Z M 9.3125 -24.6875 "/></g></g></g><g fill="#444444" fill-opacity="1"><g transform="translate(281.662446, 662.548221)"><g/></g></g><g fill="#444444" fill-opacity="1"><g transform="translate(297.21478, 662.548221)"><g><path d="M 18.515625 0.296875 C 15.410156 0.296875 12.457031 -0.234375 9.65625 -1.296875 C 6.851562 -2.367188 4.664062 -3.753906 3.09375 -5.453125 L 4.484375 -7.75 C 5.972656 -6.175781 7.976562 -4.894531 10.5 -3.90625 C 13.019531 -2.914062 15.671875 -2.421875 18.453125 -2.421875 C 22.492188 -2.421875 25.539062 -3.1875 27.59375 -4.71875 C 29.65625 -6.25 30.6875 -8.25 30.6875 -10.71875 C 30.6875 -12.613281 30.140625 -14.125 29.046875 -15.25 C 27.953125 -16.375 26.597656 -17.238281 24.984375 -17.84375 C 23.378906 -18.457031 21.203125 -19.085938 18.453125 -19.734375 C 15.347656 -20.492188 12.859375 -21.238281 10.984375 -21.96875 C 9.109375 -22.695312 7.515625 -23.816406 6.203125 -25.328125 C 4.890625 -26.835938 4.234375 -28.863281 4.234375 -31.40625 C 4.234375 -33.46875 4.773438 -35.351562 5.859375 -37.0625 C 6.953125 -38.78125 8.617188 -40.140625 10.859375 -41.140625 C 13.097656 -42.148438 15.894531 -42.65625 19.25 -42.65625 C 21.582031 -42.65625 23.878906 -42.3125 26.140625 -41.625 C 28.398438 -40.945312 30.359375 -40.019531 32.015625 -38.84375 L 30.859375 -36.375 C 29.171875 -37.539062 27.304688 -38.425781 25.265625 -39.03125 C 23.222656 -39.632812 21.21875 -39.9375 19.25 -39.9375 C 15.332031 -39.9375 12.363281 -39.148438 10.34375 -37.578125 C 8.332031 -36.003906 7.328125 -33.96875 7.328125 -31.46875 C 7.328125 -29.570312 7.867188 -28.054688 8.953125 -26.921875 C 10.046875 -25.796875 11.398438 -24.929688 13.015625 -24.328125 C 14.628906 -23.722656 16.828125 -23.078125 19.609375 -22.390625 C 22.710938 -21.617188 25.191406 -20.867188 27.046875 -20.140625 C 28.898438 -19.421875 30.484375 -18.320312 31.796875 -16.84375 C 33.109375 -15.375 33.765625 -13.390625 33.765625 -10.890625 C 33.765625 -8.835938 33.207031 -6.960938 32.09375 -5.265625 C 30.988281 -3.566406 29.285156 -2.210938 26.984375 -1.203125 C 24.691406 -0.203125 21.867188 0.296875 18.515625 0.296875 Z M 18.515625 0.296875 "/></g></g></g><g fill="#444444" fill-opacity="1"><g transform="translate(334.068352, 662.548221)"><g><path d="M 17.671875 -16.890625 L 9.4375 -9.375 L 9.4375 0 L 6.421875 0 L 6.421875 -44.90625 L 9.4375 -44.90625 L 9.4375 -13.125 L 29.65625 -31.59375 L 33.53125 -31.59375 L 19.90625 -18.828125 L 34.859375 0 L 31.109375 0 Z M 17.671875 -16.890625 "/></g></g></g><g fill="#444444" fill-opacity="1"><g transform="translate(369.106476, 662.548221)"><g><path d="M 6.421875 -31.59375 L 9.4375 -31.59375 L 9.4375 0 L 6.421875 0 Z M 7.921875 -39.28125 C 7.234375 -39.28125 6.644531 -39.507812 6.15625 -39.96875 C 5.675781 -40.4375 5.4375 -41.007812 5.4375 -41.6875 C 5.4375 -42.375 5.675781 -42.957031 6.15625 -43.4375 C 6.644531 -43.925781 7.234375 -44.171875 7.921875 -44.171875 C 8.609375 -44.171875 9.191406 -43.9375 9.671875 -43.46875 C 10.160156 -43.007812 10.40625 -42.4375 10.40625 -41.75 C 10.40625 -41.070312 10.160156 -40.488281 9.671875 -40 C 9.191406 -39.519531 8.609375 -39.28125 7.921875 -39.28125 Z M 7.921875 -39.28125 "/></g></g></g><g fill="#444444" fill-opacity="1"><g transform="translate(384.900871, 662.548221)"><g><path d="M 6.421875 -44.90625 L 9.4375 -44.90625 L 9.4375 0 L 6.421875 0 Z M 6.421875 -44.90625 "/></g></g></g><g fill="#444444" fill-opacity="1"><g transform="translate(400.695267, 662.548221)"><g><path d="M 6.421875 -44.90625 L 9.4375 -44.90625 L 9.4375 0 L 6.421875 0 Z M 6.421875 -44.90625 "/></g></g></g><g fill="#444444" fill-opacity="1"><g transform="translate(416.489663, 662.548221)"><g><path d="M 14.40625 0.234375 C 11.863281 0.234375 9.441406 -0.144531 7.140625 -0.90625 C 4.835938 -1.675781 3.039062 -2.644531 1.75 -3.8125 L 3.140625 -6.234375 C 4.429688 -5.140625 6.097656 -4.226562 8.140625 -3.5 C 10.179688 -2.78125 12.3125 -2.421875 14.53125 -2.421875 C 17.707031 -2.421875 20.050781 -2.941406 21.5625 -3.984375 C 23.082031 -5.035156 23.84375 -6.488281 23.84375 -8.34375 C 23.84375 -9.675781 23.425781 -10.722656 22.59375 -11.484375 C 21.769531 -12.253906 20.753906 -12.820312 19.546875 -13.1875 C 18.335938 -13.550781 16.664062 -13.9375 14.53125 -14.34375 C 12.019531 -14.789062 10 -15.273438 8.46875 -15.796875 C 6.9375 -16.316406 5.625 -17.160156 4.53125 -18.328125 C 3.445312 -19.503906 2.90625 -21.117188 2.90625 -23.171875 C 2.90625 -25.671875 3.941406 -27.738281 6.015625 -29.375 C 8.097656 -31.007812 11.054688 -31.828125 14.890625 -31.828125 C 16.898438 -31.828125 18.894531 -31.546875 20.875 -30.984375 C 22.851562 -30.421875 24.46875 -29.675781 25.71875 -28.75 L 24.328125 -26.328125 C 23.035156 -27.253906 21.5625 -27.957031 19.90625 -28.4375 C 18.25 -28.925781 16.554688 -29.171875 14.828125 -29.171875 C 11.878906 -29.171875 9.660156 -28.625 8.171875 -27.53125 C 6.679688 -26.445312 5.9375 -25.015625 5.9375 -23.234375 C 5.9375 -21.828125 6.359375 -20.726562 7.203125 -19.9375 C 8.046875 -19.15625 9.082031 -18.570312 10.3125 -18.1875 C 11.539062 -17.800781 13.265625 -17.382812 15.484375 -16.9375 C 17.953125 -16.5 19.941406 -16.023438 21.453125 -15.515625 C 22.960938 -15.015625 24.242188 -14.195312 25.296875 -13.0625 C 26.347656 -11.9375 26.875 -10.382812 26.875 -8.40625 C 26.875 -5.789062 25.78125 -3.695312 23.59375 -2.125 C 21.414062 -0.550781 18.351562 0.234375 14.40625 0.234375 Z M 14.40625 0.234375 "/></g></g></g><g fill="#444444" fill-opacity="1"><g transform="translate(445.415785, 662.548221)"><g><path d="M 6.046875 -4.90625 C 6.773438 -4.90625 7.378906 -4.648438 7.859375 -4.140625 C 8.347656 -3.640625 8.59375 -3.046875 8.59375 -2.359375 C 8.59375 -1.953125 8.539062 -1.523438 8.4375 -1.078125 C 8.34375 -0.640625 8.210938 -0.140625 8.046875 0.421875 L 5.6875 8.65625 L 3.515625 8.65625 L 5.5 0.125 C 4.894531 -0.0390625 4.410156 -0.332031 4.046875 -0.75 C 3.691406 -1.175781 3.515625 -1.710938 3.515625 -2.359375 C 3.515625 -3.085938 3.753906 -3.691406 4.234375 -4.171875 C 4.722656 -4.660156 5.328125 -4.90625 6.046875 -4.90625 Z M 6.046875 -4.90625 "/></g></g></g><g fill="#444444" fill-opacity="1"><g transform="translate(457.518768, 662.548221)"><g/></g></g><g fill="#444444" fill-opacity="1"><g transform="translate(473.071084, 662.548221)"><g><path d="M 22.578125 -42.359375 C 27.898438 -42.359375 32.070312 -41.097656 35.09375 -38.578125 C 38.125 -36.054688 39.640625 -32.554688 39.640625 -28.078125 C 39.640625 -23.640625 38.125 -20.160156 35.09375 -17.640625 C 32.070312 -15.117188 27.898438 -13.859375 22.578125 -13.859375 L 10.46875 -13.859375 L 10.46875 0 L 7.390625 0 L 7.390625 -42.359375 Z M 22.578125 -16.640625 C 27.085938 -16.640625 30.53125 -17.628906 32.90625 -19.609375 C 35.289062 -21.585938 36.484375 -24.410156 36.484375 -28.078125 C 36.484375 -31.753906 35.289062 -34.585938 32.90625 -36.578125 C 30.53125 -38.578125 27.085938 -39.578125 22.578125 -39.578125 L 10.46875 -39.578125 L 10.46875 -16.640625 Z M 22.578125 -16.640625 "/></g></g></g><g fill="#444444" fill-opacity="1"><g transform="translate(514.765871, 662.548221)"><g><path d="M 9.3125 -24.6875 C 10.28125 -26.988281 11.789062 -28.753906 13.84375 -29.984375 C 15.90625 -31.210938 18.410156 -31.828125 21.359375 -31.828125 L 21.359375 -28.859375 L 20.640625 -28.921875 C 17.128906 -28.921875 14.382812 -27.820312 12.40625 -25.625 C 10.425781 -23.425781 9.4375 -20.367188 9.4375 -16.453125 L 9.4375 0 L 6.421875 0 L 6.421875 -31.59375 L 9.3125 -31.59375 Z M 9.3125 -24.6875 "/></g></g></g><g fill="#444444" fill-opacity="1"><g transform="translate(537.761552, 662.548221)"><g><path d="M 18.765625 0.234375 C 15.773438 0.234375 13.078125 -0.445312 10.671875 -1.8125 C 8.273438 -3.1875 6.390625 -5.09375 5.015625 -7.53125 C 3.648438 -9.976562 2.96875 -12.734375 2.96875 -15.796875 C 2.96875 -18.859375 3.648438 -21.609375 5.015625 -24.046875 C 6.390625 -26.492188 8.273438 -28.398438 10.671875 -29.765625 C 13.078125 -31.140625 15.773438 -31.828125 18.765625 -31.828125 C 21.742188 -31.828125 24.429688 -31.140625 26.828125 -29.765625 C 29.234375 -28.398438 31.117188 -26.492188 32.484375 -24.046875 C 33.859375 -21.609375 34.546875 -18.859375 34.546875 -15.796875 C 34.546875 -12.734375 33.859375 -9.976562 32.484375 -7.53125 C 31.117188 -5.09375 29.234375 -3.1875 26.828125 -1.8125 C 24.429688 -0.445312 21.742188 0.234375 18.765625 0.234375 Z M 18.765625 -2.484375 C 21.179688 -2.484375 23.347656 -3.046875 25.265625 -4.171875 C 27.179688 -5.304688 28.691406 -6.878906 29.796875 -8.890625 C 30.910156 -10.910156 31.46875 -13.210938 31.46875 -15.796875 C 31.46875 -18.378906 30.910156 -20.675781 29.796875 -22.6875 C 28.691406 -24.707031 27.179688 -26.28125 25.265625 -27.40625 C 23.347656 -28.539062 21.179688 -29.109375 18.765625 -29.109375 C 16.335938 -29.109375 14.164062 -28.539062 12.25 -27.40625 C 10.332031 -26.28125 8.816406 -24.707031 7.703125 -22.6875 C 6.597656 -20.675781 6.046875 -18.378906 6.046875 -15.796875 C 6.046875 -13.210938 6.597656 -10.910156 7.703125 -8.890625 C 8.816406 -6.878906 10.332031 -5.304688 12.25 -4.171875 C 14.164062 -3.046875 16.335938 -2.484375 18.765625 -2.484375 Z M 18.765625 -2.484375 "/></g></g></g><g fill="#444444" fill-opacity="1"><g transform="translate(574.373042, 662.548221)"><g><path d="M 31.765625 -31.59375 L 17.484375 0 L 14.40625 0 L 0.1875 -31.59375 L 3.390625 -31.59375 L 15.96875 -3.328125 L 28.6875 -31.59375 Z M 31.765625 -31.59375 "/></g></g></g><g fill="#444444" fill-opacity="1"><g transform="translate(605.417192, 662.548221)"><g><path d="M 33.109375 -15.0625 L 5.9375 -15.0625 C 6.007812 -12.601562 6.628906 -10.414062 7.796875 -8.5 C 8.972656 -6.582031 10.554688 -5.097656 12.546875 -4.046875 C 14.546875 -3.003906 16.796875 -2.484375 19.296875 -2.484375 C 21.359375 -2.484375 23.265625 -2.851562 25.015625 -3.59375 C 26.773438 -4.34375 28.238281 -5.445312 29.40625 -6.90625 L 31.171875 -4.90625 C 29.796875 -3.25 28.066406 -1.976562 25.984375 -1.09375 C 23.910156 -0.207031 21.664062 0.234375 19.25 0.234375 C 16.101562 0.234375 13.296875 -0.445312 10.828125 -1.8125 C 8.367188 -3.1875 6.441406 -5.082031 5.046875 -7.5 C 3.660156 -9.925781 2.96875 -12.691406 2.96875 -15.796875 C 2.96875 -18.859375 3.625 -21.609375 4.9375 -24.046875 C 6.25 -26.492188 8.050781 -28.398438 10.34375 -29.765625 C 12.644531 -31.140625 15.226562 -31.828125 18.09375 -31.828125 C 20.957031 -31.828125 23.53125 -31.148438 25.8125 -29.796875 C 28.09375 -28.453125 29.882812 -26.566406 31.1875 -24.140625 C 32.5 -21.722656 33.15625 -18.984375 33.15625 -15.921875 Z M 18.09375 -29.171875 C 15.875 -29.171875 13.875 -28.675781 12.09375 -27.6875 C 10.320312 -26.695312 8.898438 -25.300781 7.828125 -23.5 C 6.765625 -21.707031 6.148438 -19.679688 5.984375 -17.421875 L 30.203125 -17.421875 C 30.078125 -19.679688 29.46875 -21.695312 28.375 -23.46875 C 27.289062 -25.25 25.859375 -26.644531 24.078125 -27.65625 C 22.304688 -28.664062 20.3125 -29.171875 18.09375 -29.171875 Z M 18.09375 -29.171875 "/></g></g></g><g fill="#444444" fill-opacity="1"><g transform="translate(641.544561, 662.548221)"><g><path d="M 21.84375 -31.828125 C 25.800781 -31.828125 28.925781 -30.675781 31.21875 -28.375 C 33.519531 -26.082031 34.671875 -22.773438 34.671875 -18.453125 L 34.671875 0 L 31.65625 0 L 31.65625 -18.21875 C 31.65625 -21.769531 30.753906 -24.472656 28.953125 -26.328125 C 27.160156 -28.179688 24.648438 -29.109375 21.421875 -29.109375 C 17.710938 -29.109375 14.785156 -28 12.640625 -25.78125 C 10.503906 -23.5625 9.4375 -20.578125 9.4375 -16.828125 L 9.4375 0 L 6.421875 0 L 6.421875 -31.59375 L 9.3125 -31.59375 L 9.3125 -24.75 C 10.40625 -26.96875 12.03125 -28.703125 14.1875 -29.953125 C 16.34375 -31.203125 18.894531 -31.828125 21.84375 -31.828125 Z M 21.84375 -31.828125 "/></g></g></g><g fill="#444444" fill-opacity="1"><g transform="translate(682.271104, 662.548221)"><g><path d="M 6.046875 0.234375 C 5.359375 0.234375 4.765625 -0.015625 4.265625 -0.515625 C 3.765625 -1.015625 3.515625 -1.628906 3.515625 -2.359375 C 3.515625 -3.085938 3.765625 -3.691406 4.265625 -4.171875 C 4.765625 -4.660156 5.359375 -4.90625 6.046875 -4.90625 C 6.734375 -4.90625 7.328125 -4.660156 7.828125 -4.171875 C 8.335938 -3.691406 8.59375 -3.085938 8.59375 -2.359375 C 8.59375 -1.628906 8.335938 -1.015625 7.828125 -0.515625 C 7.328125 -0.015625 6.734375 0.234375 6.046875 0.234375 Z M 6.046875 0.234375 "/></g></g></g><path stroke-linecap="butt" transform="matrix(1.260725, 0, 0, 1.260725, 578.939806, 262.213365)" fill="none" stroke-linejoin="miter" d="M 41.061487 60.432691 L 73.219953 60.432691 L 73.219953 205.999404 L 41.061487 205.999404 Z M 125.505734 207.096244 C 117.84335 207.096244 111.906783 205.983912 107.696035 203.762347 C 103.513173 201.540783 100.588267 198.33702 98.921319 194.154157 C 97.254371 189.943409 96.420897 184.487097 96.420897 177.791419 L 96.420897 121.369252 L 86.329354 121.369252 L 86.329354 102.15597 L 96.420897 102.15597 L 96.420897 70.524234 L 126.032465 70.524234 L 126.032465 102.15597 L 140.774731 102.15597 L 140.774731 121.369252 L 126.032465 121.369252 L 126.032465 174.894399 C 126.032465 177.791419 126.838053 179.926228 128.446131 181.298827 C 130.085194 182.674524 132.337743 183.362372 135.203778 183.362372 C 137.601953 183.362372 140.232508 183.126893 143.098544 182.659032 L 143.098544 205.649283 C 137.366473 206.612891 131.504269 207.096244 125.505734 207.096244 Z M 125.505734 207.096244 " stroke="#2e8fff" stroke-width="6.738788" stroke-opacity="1" stroke-miterlimit="4"/><g fill="#121212" fill-opacity="1"><g transform="translate(52.933951, 512.972357)"><g><path d="M 20.171875 -272.3125 L 111.609375 -272.3125 C 135.597656 -272.3125 153.53125 -265.53125 165.40625 -251.96875 C 177.28125 -238.414062 183.21875 -218.863281 183.21875 -193.3125 C 183.21875 -164.175781 176.328125 -143.945312 162.546875 -132.625 C 148.765625 -121.3125 129.429688 -115.65625 104.546875 -115.65625 L 80.34375 -115.65625 L 80.34375 0 L 20.171875 0 Z M 100.515625 -157.671875 C 111.054688 -157.671875 118.0625 -160.472656 121.53125 -166.078125 C 125.007812 -171.679688 126.75 -181.09375 126.75 -194.3125 C 126.75 -206.414062 125.066406 -215.378906 121.703125 -221.203125 C 118.335938 -227.035156 111.164062 -229.953125 100.1875 -229.953125 L 80.34375 -229.953125 L 80.34375 -157.671875 Z M 100.515625 -157.671875 "/></g></g></g><g fill="#121212" fill-opacity="1"><g transform="translate(209.767674, 521.922626)"><g><path d="M 12 -130.9375 L 48.9375 -130.9375 L 48.9375 -109.203125 C 53.46875 -117.203125 57.847656 -123.085938 62.078125 -126.859375 C 66.304688 -130.640625 71.289062 -132.53125 77.03125 -132.53125 C 79.144531 -132.53125 81.03125 -132.300781 82.6875 -131.84375 L 82.6875 -95.15625 C 78.15625 -96.96875 74.15625 -97.875 70.6875 -97.875 C 62.675781 -97.875 55.425781 -93.644531 48.9375 -85.1875 L 48.9375 0 L 12 0 Z M 12 -130.9375 "/></g></g></g><g fill="#121212" fill-opacity="1"><g transform="translate(296.531133, 521.922626)"><g><path d="M 54.59375 2.265625 C 40.25 2.265625 29.035156 -1.359375 20.953125 -8.609375 C 12.867188 -15.859375 8.828125 -26.503906 8.828125 -40.546875 L 8.828125 -90.390625 C 8.828125 -104.441406 12.867188 -115.085938 20.953125 -122.328125 C 29.035156 -129.578125 40.25 -133.203125 54.59375 -133.203125 C 68.945312 -133.203125 80.203125 -129.539062 88.359375 -122.21875 C 96.515625 -114.894531 100.59375 -104.285156 100.59375 -90.390625 L 100.59375 -40.546875 C 100.59375 -26.648438 96.515625 -16.039062 88.359375 -8.71875 C 80.203125 -1.394531 68.945312 2.265625 54.59375 2.265625 Z M 54.828125 -22.203125 C 58.296875 -22.203125 60.707031 -23.519531 62.0625 -26.15625 C 63.425781 -28.800781 64.109375 -32.769531 64.109375 -38.0625 L 64.109375 -92.890625 C 64.109375 -98.171875 63.425781 -102.132812 62.0625 -104.78125 C 60.707031 -107.425781 58.296875 -108.75 54.828125 -108.75 C 51.347656 -108.75 48.890625 -107.390625 47.453125 -104.671875 C 46.023438 -101.953125 45.3125 -98.023438 45.3125 -92.890625 L 45.3125 -38.0625 C 45.3125 -32.769531 46.023438 -28.800781 47.453125 -26.15625 C 48.890625 -23.519531 51.347656 -22.203125 54.828125 -22.203125 Z M 54.828125 -22.203125 "/></g></g></g><g fill="#121212" fill-opacity="1"><g transform="translate(405.948237, 521.922626)"><g><path d="M 2.265625 -130.9375 L 37.609375 -130.9375 L 48.484375 -47.34375 L 58.453125 -130.9375 L 93.796875 -130.9375 L 66.828125 0 L 28.546875 0 Z M 2.265625 -130.9375 "/></g></g></g><g fill="#121212" fill-opacity="1"><g transform="translate(501.320081, 521.922626)"><g><path d="M 54.375 2.265625 C 40.019531 2.265625 28.835938 -1.546875 20.828125 -9.171875 C 12.828125 -16.796875 8.828125 -27.554688 8.828125 -41.453125 L 8.828125 -89.484375 C 8.828125 -103.378906 12.828125 -114.140625 20.828125 -121.765625 C 28.835938 -129.390625 40.019531 -133.203125 54.375 -133.203125 C 68.875 -133.203125 79.75 -129.503906 87 -122.109375 C 94.25 -114.710938 97.875 -103.835938 97.875 -89.484375 L 97.875 -63.203125 L 45.3125 -63.203125 L 45.3125 -38.0625 C 45.3125 -28.695312 48.332031 -24.015625 54.375 -24.015625 C 60.71875 -24.015625 63.890625 -28.242188 63.890625 -36.703125 L 63.890625 -50.515625 L 97.875 -50.515625 L 97.875 -37.828125 C 97.875 -24.691406 94.054688 -14.722656 86.421875 -7.921875 C 78.796875 -1.128906 68.113281 2.265625 54.375 2.265625 Z M 63.890625 -80.421875 L 63.890625 -93.5625 C 63.890625 -98.394531 63.019531 -101.832031 61.28125 -103.875 C 59.539062 -105.914062 57.160156 -106.9375 54.140625 -106.9375 C 51.273438 -106.9375 49.085938 -105.800781 47.578125 -103.53125 C 46.066406 -101.269531 45.3125 -97.269531 45.3125 -91.53125 L 45.3125 -80.421875 Z M 63.890625 -80.421875 "/></g></g></g></svg>