<svg xmlns="http://www.w3.org/2000/svg" xmlns:xlink="http://www.w3.org/1999/xlink" width="1120" zoomAndPan="magnify" viewBox="0 0 840 839.999992" height="1120" preserveAspectRatio="xMidYMid meet" version="1.0"><defs><g/></defs><g fill="#f5f7f7" fill-opacity="1"><g transform="translate(90.907038, 648.226979)"><g><path d="M 27.015625 -16.84375 L 27.015625 0 L 18.140625 0 L 18.140625 -16.703125 L -0.609375 -47.75 L 8.859375 -47.75 L 22.84375 -24.484375 L 36.96875 -47.75 L 45.703125 -47.75 Z M 27.015625 -16.84375 "/></g></g></g><g fill="#f5f7f7" fill-opacity="1"><g transform="translate(131.897049, 648.226979)"><g><path d="M 21.96875 0.484375 C 18.28125 0.484375 14.957031 -0.3125 12 -1.90625 C 9.050781 -3.5 6.742188 -5.71875 5.078125 -8.5625 C 3.421875 -11.40625 2.59375 -14.617188 2.59375 -18.203125 C 2.59375 -21.796875 3.421875 -25.003906 5.078125 -27.828125 C 6.742188 -30.648438 9.050781 -32.851562 12 -34.4375 C 14.957031 -36.03125 18.28125 -36.828125 21.96875 -36.828125 C 25.6875 -36.828125 29.023438 -36.03125 31.984375 -34.4375 C 34.941406 -32.851562 37.25 -30.648438 38.90625 -27.828125 C 40.570312 -25.003906 41.40625 -21.796875 41.40625 -18.203125 C 41.40625 -14.617188 40.570312 -11.40625 38.90625 -8.5625 C 37.25 -5.71875 34.941406 -3.5 31.984375 -1.90625 C 29.023438 -0.3125 25.6875 0.484375 21.96875 0.484375 Z M 21.96875 -6.828125 C 25.101562 -6.828125 27.691406 -7.867188 29.734375 -9.953125 C 31.785156 -12.046875 32.8125 -14.796875 32.8125 -18.203125 C 32.8125 -21.617188 31.785156 -24.367188 29.734375 -26.453125 C 27.691406 -28.546875 25.101562 -29.59375 21.96875 -29.59375 C 18.820312 -29.59375 16.238281 -28.546875 14.21875 -26.453125 C 12.195312 -24.367188 11.1875 -21.617188 11.1875 -18.203125 C 11.1875 -14.796875 12.195312 -12.046875 14.21875 -9.953125 C 16.238281 -7.867188 18.820312 -6.828125 21.96875 -6.828125 Z M 21.96875 -6.828125 "/></g></g></g><g fill="#f5f7f7" fill-opacity="1"><g transform="translate(175.888113, 648.226979)"><g><path d="M 40.859375 -36.421875 L 40.859375 0 L 32.734375 0 L 32.734375 -4.640625 C 31.367188 -3.003906 29.660156 -1.738281 27.609375 -0.84375 C 25.566406 0.0390625 23.363281 0.484375 21 0.484375 C 16.132812 0.484375 12.300781 -0.867188 9.5 -3.578125 C 6.707031 -6.285156 5.3125 -10.300781 5.3125 -15.625 L 5.3125 -36.421875 L 13.84375 -36.421875 L 13.84375 -16.78125 C 13.84375 -13.507812 14.582031 -11.066406 16.0625 -9.453125 C 17.539062 -7.835938 19.644531 -7.03125 22.375 -7.03125 C 25.414062 -7.03125 27.832031 -7.972656 29.625 -9.859375 C 31.425781 -11.742188 32.328125 -14.457031 32.328125 -18 L 32.328125 -36.421875 Z M 40.859375 -36.421875 "/></g></g></g><g fill="#f5f7f7" fill-opacity="1"><g transform="translate(222.334496, 648.226979)"><g><path d="M 13.703125 -31.09375 C 16.160156 -34.914062 20.484375 -36.828125 26.671875 -36.828125 L 26.671875 -28.71875 C 25.941406 -28.851562 25.28125 -28.921875 24.6875 -28.921875 C 21.363281 -28.921875 18.769531 -27.953125 16.90625 -26.015625 C 15.050781 -24.085938 14.125 -21.304688 14.125 -17.671875 L 14.125 0 L 5.59375 0 L 5.59375 -36.421875 L 13.703125 -36.421875 Z M 13.703125 -31.09375 "/></g></g></g><g fill="#f5f7f7" fill-opacity="1"><g transform="translate(250.979846, 648.226979)"><g/></g></g><g fill="#f5f7f7" fill-opacity="1"><g transform="translate(269.803933, 648.226979)"><g><path d="M 21.21875 0.6875 C 17.53125 0.6875 13.96875 0.164062 10.53125 -0.875 C 7.101562 -1.925781 4.390625 -3.316406 2.390625 -5.046875 L 5.453125 -11.9375 C 7.410156 -10.382812 9.8125 -9.117188 12.65625 -8.140625 C 15.5 -7.171875 18.351562 -6.6875 21.21875 -6.6875 C 24.757812 -6.6875 27.40625 -7.253906 29.15625 -8.390625 C 30.90625 -9.523438 31.78125 -11.023438 31.78125 -12.890625 C 31.78125 -14.253906 31.289062 -15.378906 30.3125 -16.265625 C 29.332031 -17.148438 28.09375 -17.84375 26.59375 -18.34375 C 25.09375 -18.84375 23.050781 -19.410156 20.46875 -20.046875 C 16.820312 -20.910156 13.875 -21.773438 11.625 -22.640625 C 9.375 -23.503906 7.441406 -24.859375 5.828125 -26.703125 C 4.210938 -28.546875 3.40625 -31.035156 3.40625 -34.171875 C 3.40625 -36.804688 4.117188 -39.203125 5.546875 -41.359375 C 6.984375 -43.523438 9.144531 -45.242188 12.03125 -46.515625 C 14.925781 -47.785156 18.460938 -48.421875 22.640625 -48.421875 C 25.554688 -48.421875 28.421875 -48.054688 31.234375 -47.328125 C 34.054688 -46.597656 36.488281 -45.554688 38.53125 -44.203125 L 35.734375 -37.3125 C 33.640625 -38.539062 31.457031 -39.472656 29.1875 -40.109375 C 26.914062 -40.742188 24.710938 -41.0625 22.578125 -41.0625 C 19.078125 -41.0625 16.472656 -40.46875 14.765625 -39.28125 C 13.054688 -38.101562 12.203125 -36.535156 12.203125 -34.578125 C 12.203125 -33.210938 12.691406 -32.097656 13.671875 -31.234375 C 14.648438 -30.367188 15.890625 -29.6875 17.390625 -29.1875 C 18.890625 -28.6875 20.9375 -28.117188 23.53125 -27.484375 C 27.070312 -26.671875 29.976562 -25.816406 32.25 -24.921875 C 34.53125 -24.035156 36.476562 -22.679688 38.09375 -20.859375 C 39.707031 -19.046875 40.515625 -16.59375 40.515625 -13.5 C 40.515625 -10.863281 39.796875 -8.476562 38.359375 -6.34375 C 36.929688 -4.207031 34.757812 -2.5 31.84375 -1.21875 C 28.9375 0.0507812 25.394531 0.6875 21.21875 0.6875 Z M 21.21875 0.6875 "/></g></g></g><g fill="#f5f7f7" fill-opacity="1"><g transform="translate(312.703735, 648.226979)"><g><path d="M 20.46875 -15.625 L 14.125 -9.609375 L 14.125 0 L 5.59375 0 L 5.59375 -50.609375 L 14.125 -50.609375 L 14.125 -20.046875 L 31.78125 -36.421875 L 42.015625 -36.421875 L 26.796875 -21.140625 L 43.453125 0 L 33.078125 0 Z M 20.46875 -15.625 "/></g></g></g><g fill="#f5f7f7" fill-opacity="1"><g transform="translate(355.739949, 648.226979)"><g><path d="M 5.59375 -36.421875 L 14.125 -36.421875 L 14.125 0 L 5.59375 0 Z M 9.875 -42.421875 C 8.332031 -42.421875 7.035156 -42.910156 5.984375 -43.890625 C 4.941406 -44.867188 4.421875 -46.082031 4.421875 -47.53125 C 4.421875 -48.988281 4.941406 -50.207031 5.984375 -51.1875 C 7.035156 -52.164062 8.332031 -52.65625 9.875 -52.65625 C 11.425781 -52.65625 12.722656 -52.1875 13.765625 -51.25 C 14.816406 -50.320312 15.34375 -49.15625 15.34375 -47.75 C 15.34375 -46.238281 14.828125 -44.972656 13.796875 -43.953125 C 12.773438 -42.929688 11.46875 -42.421875 9.875 -42.421875 Z M 9.875 -42.421875 "/></g></g></g><g fill="#f5f7f7" fill-opacity="1"><g transform="translate(375.450679, 648.226979)"><g><path d="M 5.59375 -50.609375 L 14.125 -50.609375 L 14.125 0 L 5.59375 0 Z M 5.59375 -50.609375 "/></g></g></g><g fill="#f5f7f7" fill-opacity="1"><g transform="translate(395.16141, 648.226979)"><g><path d="M 5.59375 -50.609375 L 14.125 -50.609375 L 14.125 0 L 5.59375 0 Z M 5.59375 -50.609375 "/></g></g></g><g fill="#f5f7f7" fill-opacity="1"><g transform="translate(414.87214, 648.226979)"><g><path d="M 16.84375 0.484375 C 13.882812 0.484375 10.992188 0.0976562 8.171875 -0.671875 C 5.359375 -1.453125 3.113281 -2.429688 1.4375 -3.609375 L 4.703125 -10.09375 C 6.335938 -9 8.300781 -8.125 10.59375 -7.46875 C 12.894531 -6.8125 15.160156 -6.484375 17.390625 -6.484375 C 22.484375 -6.484375 25.03125 -7.820312 25.03125 -10.5 C 25.03125 -11.769531 24.378906 -12.65625 23.078125 -13.15625 C 21.785156 -13.65625 19.707031 -14.132812 16.84375 -14.59375 C 13.84375 -15.050781 11.398438 -15.570312 9.515625 -16.15625 C 7.628906 -16.75 5.992188 -17.785156 4.609375 -19.265625 C 3.222656 -20.742188 2.53125 -22.800781 2.53125 -25.4375 C 2.53125 -28.894531 3.972656 -31.65625 6.859375 -33.71875 C 9.742188 -35.789062 13.640625 -36.828125 18.546875 -36.828125 C 21.046875 -36.828125 23.546875 -36.539062 26.046875 -35.96875 C 28.554688 -35.40625 30.601562 -34.644531 32.1875 -33.6875 L 28.921875 -27.21875 C 25.828125 -29.03125 22.347656 -29.9375 18.484375 -29.9375 C 15.984375 -29.9375 14.082031 -29.5625 12.78125 -28.8125 C 11.488281 -28.0625 10.84375 -27.070312 10.84375 -25.84375 C 10.84375 -24.476562 11.535156 -23.507812 12.921875 -22.9375 C 14.304688 -22.375 16.457031 -21.84375 19.375 -21.34375 C 22.28125 -20.894531 24.664062 -20.375 26.53125 -19.78125 C 28.394531 -19.1875 29.992188 -18.179688 31.328125 -16.765625 C 32.671875 -15.359375 33.34375 -13.363281 33.34375 -10.78125 C 33.34375 -7.363281 31.863281 -4.628906 28.90625 -2.578125 C 25.957031 -0.535156 21.9375 0.484375 16.84375 0.484375 Z M 16.84375 0.484375 "/></g></g></g><g fill="#f5f7f7" fill-opacity="1"><g transform="translate(449.996802, 648.226979)"><g><path d="M 8.390625 -10.84375 C 9.984375 -10.84375 11.300781 -10.316406 12.34375 -9.265625 C 13.382812 -8.222656 13.90625 -6.863281 13.90625 -5.1875 C 13.90625 -4.457031 13.800781 -3.691406 13.59375 -2.890625 C 13.394531 -2.097656 12.976562 -0.90625 12.34375 0.6875 L 8.859375 10.296875 L 3.34375 10.296875 L 6.0625 -0.140625 C 5.0625 -0.546875 4.273438 -1.191406 3.703125 -2.078125 C 3.140625 -2.960938 2.859375 -4 2.859375 -5.1875 C 2.859375 -6.863281 3.378906 -8.222656 4.421875 -9.265625 C 5.472656 -10.316406 6.796875 -10.84375 8.390625 -10.84375 Z M 8.390625 -10.84375 "/></g></g></g><g fill="#f5f7f7" fill-opacity="1"><g transform="translate(466.638388, 648.226979)"><g/></g></g><g fill="#f5f7f7" fill-opacity="1"><g transform="translate(485.462499, 648.226979)"><g><path d="M 26.046875 -47.75 C 30.191406 -47.75 33.796875 -47.066406 36.859375 -45.703125 C 39.929688 -44.335938 42.285156 -42.378906 43.921875 -39.828125 C 45.554688 -37.285156 46.375 -34.265625 46.375 -30.765625 C 46.375 -27.304688 45.554688 -24.289062 43.921875 -21.71875 C 42.285156 -19.15625 39.929688 -17.191406 36.859375 -15.828125 C 33.796875 -14.460938 30.191406 -13.78125 26.046875 -13.78125 L 15.28125 -13.78125 L 15.28125 0 L 6.40625 0 L 6.40625 -47.75 Z M 25.640625 -21.28125 C 29.503906 -21.28125 32.4375 -22.097656 34.4375 -23.734375 C 36.4375 -25.367188 37.4375 -27.710938 37.4375 -30.765625 C 37.4375 -33.804688 36.4375 -36.144531 34.4375 -37.78125 C 32.4375 -39.414062 29.503906 -40.234375 25.640625 -40.234375 L 15.28125 -40.234375 L 15.28125 -21.28125 Z M 25.640625 -21.28125 "/></g></g></g><g fill="#f5f7f7" fill-opacity="1"><g transform="translate(533.954959, 648.226979)"><g><path d="M 13.703125 -31.09375 C 16.160156 -34.914062 20.484375 -36.828125 26.671875 -36.828125 L 26.671875 -28.71875 C 25.941406 -28.851562 25.28125 -28.921875 24.6875 -28.921875 C 21.363281 -28.921875 18.769531 -27.953125 16.90625 -26.015625 C 15.050781 -24.085938 14.125 -21.304688 14.125 -17.671875 L 14.125 0 L 5.59375 0 L 5.59375 -36.421875 L 13.703125 -36.421875 Z M 13.703125 -31.09375 "/></g></g></g><g fill="#f5f7f7" fill-opacity="1"><g transform="translate(561.918275, 648.226979)"><g><path d="M 21.96875 0.484375 C 18.28125 0.484375 14.957031 -0.3125 12 -1.90625 C 9.050781 -3.5 6.742188 -5.71875 5.078125 -8.5625 C 3.421875 -11.40625 2.59375 -14.617188 2.59375 -18.203125 C 2.59375 -21.796875 3.421875 -25.003906 5.078125 -27.828125 C 6.742188 -30.648438 9.050781 -32.851562 12 -34.4375 C 14.957031 -36.03125 18.28125 -36.828125 21.96875 -36.828125 C 25.6875 -36.828125 29.023438 -36.03125 31.984375 -34.4375 C 34.941406 -32.851562 37.25 -30.648438 38.90625 -27.828125 C 40.570312 -25.003906 41.40625 -21.796875 41.40625 -18.203125 C 41.40625 -14.617188 40.570312 -11.40625 38.90625 -8.5625 C 37.25 -5.71875 34.941406 -3.5 31.984375 -1.90625 C 29.023438 -0.3125 25.6875 0.484375 21.96875 0.484375 Z M 21.96875 -6.828125 C 25.101562 -6.828125 27.691406 -7.867188 29.734375 -9.953125 C 31.785156 -12.046875 32.8125 -14.796875 32.8125 -18.203125 C 32.8125 -21.617188 31.785156 -24.367188 29.734375 -26.453125 C 27.691406 -28.546875 25.101562 -29.59375 21.96875 -29.59375 C 18.820312 -29.59375 16.238281 -28.546875 14.21875 -26.453125 C 12.195312 -24.367188 11.1875 -21.617188 11.1875 -18.203125 C 11.1875 -14.796875 12.195312 -12.046875 14.21875 -9.953125 C 16.238281 -7.867188 18.820312 -6.828125 21.96875 -6.828125 Z M 21.96875 -6.828125 "/></g></g></g><g fill="#f5f7f7" fill-opacity="1"><g transform="translate(604.88626, 648.226979)"><g><path d="M 39.6875 -36.421875 L 24.078125 0 L 15.28125 0 L -0.34375 -36.421875 L 8.53125 -36.421875 L 19.84375 -9.40625 L 31.515625 -36.421875 Z M 39.6875 -36.421875 "/></g></g></g><g fill="#f5f7f7" fill-opacity="1"><g transform="translate(643.284619, 648.226979)"><g><path d="M 39.828125 -18 C 39.828125 -17.414062 39.78125 -16.578125 39.6875 -15.484375 L 11.109375 -15.484375 C 11.617188 -12.796875 12.925781 -10.664062 15.03125 -9.09375 C 17.144531 -7.53125 19.773438 -6.75 22.921875 -6.75 C 26.921875 -6.75 30.21875 -8.066406 32.8125 -10.703125 L 37.375 -5.453125 C 35.738281 -3.503906 33.671875 -2.023438 31.171875 -1.015625 C 28.671875 -0.015625 25.851562 0.484375 22.71875 0.484375 C 18.707031 0.484375 15.179688 -0.3125 12.140625 -1.90625 C 9.097656 -3.5 6.742188 -5.71875 5.078125 -8.5625 C 3.421875 -11.40625 2.59375 -14.617188 2.59375 -18.203125 C 2.59375 -21.753906 3.398438 -24.953125 5.015625 -27.796875 C 6.628906 -30.640625 8.867188 -32.851562 11.734375 -34.4375 C 14.597656 -36.03125 17.828125 -36.828125 21.421875 -36.828125 C 24.960938 -36.828125 28.128906 -36.039062 30.921875 -34.46875 C 33.722656 -32.90625 35.90625 -30.703125 37.46875 -27.859375 C 39.039062 -25.015625 39.828125 -21.726562 39.828125 -18 Z M 21.421875 -30.015625 C 18.691406 -30.015625 16.378906 -29.207031 14.484375 -27.59375 C 12.597656 -25.976562 11.453125 -23.828125 11.046875 -21.140625 L 31.71875 -21.140625 C 31.351562 -23.773438 30.238281 -25.910156 28.375 -27.546875 C 26.507812 -29.191406 24.191406 -30.015625 21.421875 -30.015625 Z M 21.421875 -30.015625 "/></g></g></g><g fill="#f5f7f7" fill-opacity="1"><g transform="translate(685.706995, 648.226979)"><g><path d="M 26.265625 -36.828125 C 30.847656 -36.828125 34.523438 -35.484375 37.296875 -32.796875 C 40.078125 -30.117188 41.46875 -26.144531 41.46875 -20.875 L 41.46875 0 L 32.9375 0 L 32.9375 -19.78125 C 32.9375 -22.957031 32.1875 -25.351562 30.6875 -26.96875 C 29.1875 -28.582031 27.050781 -29.390625 24.28125 -29.390625 C 21.144531 -29.390625 18.664062 -28.445312 16.84375 -26.5625 C 15.03125 -24.675781 14.125 -21.960938 14.125 -18.421875 L 14.125 0 L 5.59375 0 L 5.59375 -36.421875 L 13.703125 -36.421875 L 13.703125 -31.71875 C 15.117188 -33.394531 16.894531 -34.664062 19.03125 -35.53125 C 21.164062 -36.394531 23.578125 -36.828125 26.265625 -36.828125 Z M 26.265625 -36.828125 "/></g></g></g><g fill="#f5f7f7" fill-opacity="1"><g transform="translate(732.42617, 648.226979)"><g><path d="M 8.328125 0.484375 C 6.773438 0.484375 5.453125 -0.0507812 4.359375 -1.125 C 3.273438 -2.195312 2.734375 -3.550781 2.734375 -5.1875 C 2.734375 -6.863281 3.265625 -8.222656 4.328125 -9.265625 C 5.398438 -10.316406 6.734375 -10.84375 8.328125 -10.84375 C 9.910156 -10.84375 11.234375 -10.316406 12.296875 -9.265625 C 13.367188 -8.222656 13.90625 -6.863281 13.90625 -5.1875 C 13.90625 -3.550781 13.359375 -2.195312 12.265625 -1.125 C 11.179688 -0.0507812 9.867188 0.484375 8.328125 0.484375 Z M 8.328125 0.484375 "/></g></g></g><g fill="#5271ff" fill-opacity="1"><g transform="translate(604.92742, 509.732192)"><g><path d="M 12.984375 -172.359375 L 51.078125 -172.359375 L 51.078125 0 L 12.984375 0 Z M 12.984375 -172.359375 "/></g></g></g><g fill="#5271ff" fill-opacity="1"><g transform="translate(668.979334, 509.732192)"><g><path d="M 48.9375 1.28125 C 39.863281 1.28125 32.84375 -0.03125 27.875 -2.65625 C 22.90625 -5.28125 19.425781 -9.078125 17.4375 -14.046875 C 15.457031 -19.015625 14.46875 -25.46875 14.46875 -33.40625 L 14.46875 -100.234375 L 2.546875 -100.234375 L 2.546875 -123 L 14.46875 -123 L 14.46875 -160.453125 L 49.578125 -160.453125 L 49.578125 -123 L 67.03125 -123 L 67.03125 -100.234375 L 49.578125 -100.234375 L 49.578125 -36.8125 C 49.578125 -33.40625 50.535156 -30.882812 52.453125 -29.25 C 54.367188 -27.625 57.03125 -26.8125 60.4375 -26.8125 C 63.269531 -26.8125 66.390625 -27.09375 69.796875 -27.65625 L 69.796875 -0.421875 C 62.984375 0.710938 56.03125 1.28125 48.9375 1.28125 Z M 48.9375 1.28125 "/></g></g></g><g fill="#f5f7f7" fill-opacity="1"><g transform="translate(75.218186, 500.767725)"><g><path d="M 18.953125 -255.78125 L 104.84375 -255.78125 C 127.363281 -255.78125 144.203125 -249.410156 155.359375 -236.671875 C 166.515625 -223.941406 172.09375 -205.578125 172.09375 -181.578125 C 172.09375 -154.203125 165.617188 -135.195312 152.671875 -124.5625 C 139.734375 -113.9375 121.578125 -108.625 98.203125 -108.625 L 75.46875 -108.625 L 75.46875 0 L 18.953125 0 Z M 94.421875 -148.09375 C 104.316406 -148.09375 110.894531 -150.722656 114.15625 -155.984375 C 117.414062 -161.253906 119.046875 -170.097656 119.046875 -182.515625 C 119.046875 -193.890625 117.46875 -202.3125 114.3125 -207.78125 C 111.15625 -213.257812 104.421875 -216 94.109375 -216 L 75.46875 -216 L 75.46875 -148.09375 Z M 94.421875 -148.09375 "/></g></g></g><g fill="#f5f7f7" fill-opacity="1"><g transform="translate(222.53066, 509.174764)"><g><path d="M 11.28125 -123 L 45.96875 -123 L 45.96875 -102.5625 C 50.21875 -110.082031 54.328125 -115.613281 58.296875 -119.15625 C 62.273438 -122.707031 66.957031 -124.484375 72.34375 -124.484375 C 74.332031 -124.484375 76.109375 -124.269531 77.671875 -123.84375 L 77.671875 -89.375 C 73.410156 -91.070312 69.648438 -91.921875 66.390625 -91.921875 C 58.867188 -91.921875 52.0625 -87.953125 45.96875 -80.015625 L 45.96875 0 L 11.28125 0 Z M 11.28125 -123 "/></g></g></g><g fill="#f5f7f7" fill-opacity="1"><g transform="translate(304.026793, 509.174764)"><g><path d="M 51.28125 2.125 C 37.800781 2.125 27.265625 -1.273438 19.671875 -8.078125 C 12.085938 -14.890625 8.296875 -24.894531 8.296875 -38.09375 L 8.296875 -84.90625 C 8.296875 -98.101562 12.085938 -108.101562 19.671875 -114.90625 C 27.265625 -121.71875 37.800781 -125.125 51.28125 -125.125 C 64.757812 -125.125 75.328125 -121.679688 82.984375 -114.796875 C 90.648438 -107.921875 94.484375 -97.957031 94.484375 -84.90625 L 94.484375 -38.09375 C 94.484375 -25.039062 90.648438 -15.070312 82.984375 -8.1875 C 75.328125 -1.3125 64.757812 2.125 51.28125 2.125 Z M 51.5 -20.859375 C 54.757812 -20.859375 57.023438 -22.097656 58.296875 -24.578125 C 59.578125 -27.054688 60.21875 -30.78125 60.21875 -35.75 L 60.21875 -87.25 C 60.21875 -92.207031 59.578125 -95.925781 58.296875 -98.40625 C 57.023438 -100.894531 54.757812 -102.140625 51.5 -102.140625 C 48.238281 -102.140625 45.929688 -100.863281 44.578125 -98.3125 C 43.234375 -95.757812 42.5625 -92.070312 42.5625 -87.25 L 42.5625 -35.75 C 42.5625 -30.78125 43.234375 -27.054688 44.578125 -24.578125 C 45.929688 -22.097656 48.238281 -20.859375 51.5 -20.859375 Z M 51.5 -20.859375 "/></g></g></g><g fill="#f5f7f7" fill-opacity="1"><g transform="translate(406.801288, 509.174764)"><g><path d="M 2.125 -123 L 35.328125 -123 L 45.53125 -44.46875 L 54.90625 -123 L 88.09375 -123 L 62.78125 0 L 26.8125 0 Z M 2.125 -123 "/></g></g></g><g fill="#f5f7f7" fill-opacity="1"><g transform="translate(496.383199, 509.174764)"><g><path d="M 51.078125 2.125 C 37.597656 2.125 27.097656 -1.453125 19.578125 -8.609375 C 12.054688 -15.773438 8.296875 -25.882812 8.296875 -38.9375 L 8.296875 -84.0625 C 8.296875 -97.101562 12.054688 -107.207031 19.578125 -114.375 C 27.097656 -121.539062 37.597656 -125.125 51.078125 -125.125 C 64.691406 -125.125 74.898438 -121.644531 81.703125 -114.6875 C 88.515625 -107.738281 91.921875 -97.53125 91.921875 -84.0625 L 91.921875 -59.375 L 42.5625 -59.375 L 42.5625 -35.75 C 42.5625 -26.957031 45.398438 -22.5625 51.078125 -22.5625 C 57.035156 -22.5625 60.015625 -26.53125 60.015625 -34.46875 L 60.015625 -47.453125 L 91.921875 -47.453125 L 91.921875 -35.53125 C 91.921875 -23.195312 88.335938 -13.835938 81.171875 -7.453125 C 74.015625 -1.066406 63.984375 2.125 51.078125 2.125 Z M 60.015625 -75.546875 L 60.015625 -87.890625 C 60.015625 -92.421875 59.195312 -95.644531 57.5625 -97.5625 C 55.925781 -99.476562 53.691406 -100.4375 50.859375 -100.4375 C 48.160156 -100.4375 46.101562 -99.375 44.6875 -97.25 C 43.269531 -95.125 42.5625 -91.363281 42.5625 -85.96875 L 42.5625 -75.546875 Z M 60.015625 -75.546875 "/></g></g></g></svg>