<svg xmlns="http://www.w3.org/2000/svg" xmlns:xlink="http://www.w3.org/1999/xlink" width="1120" zoomAndPan="magnify" viewBox="0 0 840 839.999992" height="1120" preserveAspectRatio="xMidYMid meet" version="1.0"><defs><g/></defs><g fill="#444444" fill-opacity="1"><g transform="translate(256.775381, 554.451784)"><g><path d="M 12.171875 -8.671875 L 12.171875 0 L 10.328125 0 L 10.328125 -8.671875 L 0.1875 -25.203125 L 2.203125 -25.203125 L 11.296875 -10.375 L 20.40625 -25.203125 L 22.3125 -25.203125 Z M 12.171875 -8.671875 "/></g></g></g><g fill="#444444" fill-opacity="1"><g transform="translate(277.115422, 554.451784)"><g><path d="M 11.15625 0.140625 C 9.382812 0.140625 7.785156 -0.265625 6.359375 -1.078125 C 4.929688 -1.890625 3.804688 -3.019531 2.984375 -4.46875 C 2.171875 -5.925781 1.765625 -7.566406 1.765625 -9.390625 C 1.765625 -11.210938 2.171875 -12.847656 2.984375 -14.296875 C 3.804688 -15.753906 4.929688 -16.890625 6.359375 -17.703125 C 7.785156 -18.523438 9.382812 -18.9375 11.15625 -18.9375 C 12.9375 -18.9375 14.539062 -18.523438 15.96875 -17.703125 C 17.394531 -16.890625 18.515625 -15.753906 19.328125 -14.296875 C 20.148438 -12.847656 20.5625 -11.210938 20.5625 -9.390625 C 20.5625 -7.566406 20.148438 -5.925781 19.328125 -4.46875 C 18.515625 -3.019531 17.394531 -1.890625 15.96875 -1.078125 C 14.539062 -0.265625 12.9375 0.140625 11.15625 0.140625 Z M 11.15625 -1.46875 C 12.59375 -1.46875 13.878906 -1.800781 15.015625 -2.46875 C 16.160156 -3.144531 17.0625 -4.082031 17.71875 -5.28125 C 18.382812 -6.488281 18.71875 -7.859375 18.71875 -9.390625 C 18.71875 -10.929688 18.382812 -12.300781 17.71875 -13.5 C 17.0625 -14.695312 16.160156 -15.628906 15.015625 -16.296875 C 13.878906 -16.972656 12.59375 -17.3125 11.15625 -17.3125 C 9.71875 -17.3125 8.425781 -16.972656 7.28125 -16.296875 C 6.144531 -15.628906 5.242188 -14.695312 4.578125 -13.5 C 3.921875 -12.300781 3.59375 -10.929688 3.59375 -9.390625 C 3.59375 -7.859375 3.921875 -6.488281 4.578125 -5.28125 C 5.242188 -4.082031 6.144531 -3.144531 7.28125 -2.46875 C 8.425781 -1.800781 9.71875 -1.46875 11.15625 -1.46875 Z M 11.15625 -1.46875 "/></g></g></g><g fill="#444444" fill-opacity="1"><g transform="translate(299.435463, 554.451784)"><g><path d="M 20.265625 -18.796875 L 20.265625 0 L 18.546875 0 L 18.546875 -4.03125 C 17.921875 -2.707031 16.992188 -1.679688 15.765625 -0.953125 C 14.546875 -0.222656 13.109375 0.140625 11.453125 0.140625 C 9.003906 0.140625 7.082031 -0.539062 5.6875 -1.90625 C 4.289062 -3.269531 3.59375 -5.238281 3.59375 -7.8125 L 3.59375 -18.796875 L 5.40625 -18.796875 L 5.40625 -7.953125 C 5.40625 -5.835938 5.941406 -4.226562 7.015625 -3.125 C 8.097656 -2.019531 9.625 -1.46875 11.59375 -1.46875 C 13.707031 -1.46875 15.378906 -2.128906 16.609375 -3.453125 C 17.847656 -4.773438 18.46875 -6.550781 18.46875 -8.78125 L 18.46875 -18.796875 Z M 20.265625 -18.796875 "/></g></g></g><g fill="#444444" fill-opacity="1"><g transform="translate(323.519508, 554.451784)"><g><path d="M 5.546875 -14.6875 C 6.117188 -16.050781 7.015625 -17.097656 8.234375 -17.828125 C 9.460938 -18.566406 10.953125 -18.9375 12.703125 -18.9375 L 12.703125 -17.171875 L 12.28125 -17.203125 C 10.1875 -17.203125 8.550781 -16.546875 7.375 -15.234375 C 6.195312 -13.929688 5.609375 -12.117188 5.609375 -9.796875 L 5.609375 0 L 3.8125 0 L 3.8125 -18.796875 L 5.546875 -18.796875 Z M 5.546875 -14.6875 "/></g></g></g><g fill="#444444" fill-opacity="1"><g transform="translate(337.703532, 554.451784)"><g/></g></g><g fill="#444444" fill-opacity="1"><g transform="translate(346.955553, 554.451784)"><g><path d="M 11.015625 0.1875 C 9.171875 0.1875 7.410156 -0.128906 5.734375 -0.765625 C 4.066406 -1.410156 2.769531 -2.234375 1.84375 -3.234375 L 2.65625 -4.609375 C 3.550781 -3.671875 4.75 -2.90625 6.25 -2.3125 C 7.75 -1.726562 9.328125 -1.4375 10.984375 -1.4375 C 13.378906 -1.4375 15.1875 -1.890625 16.40625 -2.796875 C 17.632812 -3.710938 18.25 -4.90625 18.25 -6.375 C 18.25 -7.5 17.925781 -8.394531 17.28125 -9.0625 C 16.632812 -9.738281 15.828125 -10.253906 14.859375 -10.609375 C 13.898438 -10.972656 12.609375 -11.347656 10.984375 -11.734375 C 9.128906 -12.191406 7.644531 -12.632812 6.53125 -13.0625 C 5.414062 -13.5 4.46875 -14.164062 3.6875 -15.0625 C 2.90625 -15.96875 2.515625 -17.175781 2.515625 -18.6875 C 2.515625 -19.90625 2.835938 -21.023438 3.484375 -22.046875 C 4.140625 -23.066406 5.128906 -23.875 6.453125 -24.46875 C 7.785156 -25.070312 9.453125 -25.375 11.453125 -25.375 C 12.835938 -25.375 14.203125 -25.171875 15.546875 -24.765625 C 16.890625 -24.359375 18.054688 -23.804688 19.046875 -23.109375 L 18.359375 -21.640625 C 17.347656 -22.335938 16.238281 -22.863281 15.03125 -23.21875 C 13.820312 -23.582031 12.628906 -23.765625 11.453125 -23.765625 C 9.117188 -23.765625 7.351562 -23.296875 6.15625 -22.359375 C 4.957031 -21.421875 4.359375 -20.207031 4.359375 -18.71875 C 4.359375 -17.59375 4.679688 -16.691406 5.328125 -16.015625 C 5.972656 -15.347656 6.773438 -14.832031 7.734375 -14.46875 C 8.703125 -14.113281 10.007812 -13.726562 11.65625 -13.3125 C 13.507812 -12.863281 14.988281 -12.421875 16.09375 -11.984375 C 17.195312 -11.554688 18.140625 -10.90625 18.921875 -10.03125 C 19.703125 -9.15625 20.09375 -7.972656 20.09375 -6.484375 C 20.09375 -5.253906 19.757812 -4.132812 19.09375 -3.125 C 18.4375 -2.125 17.421875 -1.320312 16.046875 -0.71875 C 14.679688 -0.113281 13.003906 0.1875 11.015625 0.1875 Z M 11.015625 0.1875 "/></g></g></g><g fill="#444444" fill-opacity="1"><g transform="translate(368.879594, 554.451784)"><g><path d="M 10.515625 -10.046875 L 5.609375 -5.578125 L 5.609375 0 L 3.8125 0 L 3.8125 -26.71875 L 5.609375 -26.71875 L 5.609375 -7.8125 L 17.640625 -18.796875 L 19.9375 -18.796875 L 11.84375 -11.203125 L 20.734375 0 L 18.5 0 Z M 10.515625 -10.046875 "/></g></g></g><g fill="#444444" fill-opacity="1"><g transform="translate(389.723633, 554.451784)"><g><path d="M 3.8125 -18.796875 L 5.609375 -18.796875 L 5.609375 0 L 3.8125 0 Z M 4.71875 -23.359375 C 4.3125 -23.359375 3.960938 -23.492188 3.671875 -23.765625 C 3.378906 -24.046875 3.234375 -24.390625 3.234375 -24.796875 C 3.234375 -25.210938 3.378906 -25.5625 3.671875 -25.84375 C 3.960938 -26.132812 4.3125 -26.28125 4.71875 -26.28125 C 5.125 -26.28125 5.46875 -26.140625 5.75 -25.859375 C 6.039062 -25.585938 6.1875 -25.25 6.1875 -24.84375 C 6.1875 -24.4375 6.039062 -24.085938 5.75 -23.796875 C 5.46875 -23.503906 5.125 -23.359375 4.71875 -23.359375 Z M 4.71875 -23.359375 "/></g></g></g><g fill="#444444" fill-opacity="1"><g transform="translate(399.119655, 554.451784)"><g><path d="M 3.8125 -26.71875 L 5.609375 -26.71875 L 5.609375 0 L 3.8125 0 Z M 3.8125 -26.71875 "/></g></g></g><g fill="#444444" fill-opacity="1"><g transform="translate(408.515677, 554.451784)"><g><path d="M 3.8125 -26.71875 L 5.609375 -26.71875 L 5.609375 0 L 3.8125 0 Z M 3.8125 -26.71875 "/></g></g></g><g fill="#444444" fill-opacity="1"><g transform="translate(417.911699, 554.451784)"><g><path d="M 8.5625 0.140625 C 7.050781 0.140625 5.613281 -0.0820312 4.25 -0.53125 C 2.882812 -0.988281 1.816406 -1.566406 1.046875 -2.265625 L 1.875 -3.703125 C 2.644531 -3.054688 3.632812 -2.515625 4.84375 -2.078125 C 6.050781 -1.648438 7.316406 -1.4375 8.640625 -1.4375 C 10.535156 -1.4375 11.929688 -1.75 12.828125 -2.375 C 13.734375 -3 14.1875 -3.863281 14.1875 -4.96875 C 14.1875 -5.757812 13.9375 -6.382812 13.4375 -6.84375 C 12.945312 -7.300781 12.34375 -7.632812 11.625 -7.84375 C 10.90625 -8.0625 9.910156 -8.289062 8.640625 -8.53125 C 7.148438 -8.789062 5.945312 -9.078125 5.03125 -9.390625 C 4.125 -9.703125 3.347656 -10.207031 2.703125 -10.90625 C 2.054688 -11.601562 1.734375 -12.5625 1.734375 -13.78125 C 1.734375 -15.269531 2.347656 -16.5 3.578125 -17.46875 C 4.816406 -18.445312 6.578125 -18.9375 8.859375 -18.9375 C 10.054688 -18.9375 11.242188 -18.765625 12.421875 -18.421875 C 13.597656 -18.085938 14.554688 -17.644531 15.296875 -17.09375 L 14.46875 -15.65625 C 13.695312 -16.207031 12.820312 -16.628906 11.84375 -16.921875 C 10.863281 -17.210938 9.851562 -17.359375 8.8125 -17.359375 C 7.0625 -17.359375 5.742188 -17.03125 4.859375 -16.375 C 3.972656 -15.726562 3.53125 -14.878906 3.53125 -13.828125 C 3.53125 -12.984375 3.78125 -12.328125 4.28125 -11.859375 C 4.789062 -11.390625 5.410156 -11.039062 6.140625 -10.8125 C 6.867188 -10.582031 7.894531 -10.335938 9.21875 -10.078125 C 10.675781 -9.816406 11.851562 -9.535156 12.75 -9.234375 C 13.65625 -8.929688 14.421875 -8.441406 15.046875 -7.765625 C 15.671875 -7.097656 15.984375 -6.175781 15.984375 -5 C 15.984375 -3.4375 15.332031 -2.1875 14.03125 -1.25 C 12.738281 -0.320312 10.914062 0.140625 8.5625 0.140625 Z M 8.5625 0.140625 "/></g></g></g><g fill="#444444" fill-opacity="1"><g transform="translate(435.119733, 554.451784)"><g><path d="M 3.59375 -2.921875 C 4.03125 -2.921875 4.390625 -2.769531 4.671875 -2.46875 C 4.960938 -2.164062 5.109375 -1.8125 5.109375 -1.40625 C 5.109375 -1.164062 5.078125 -0.910156 5.015625 -0.640625 C 4.960938 -0.378906 4.882812 -0.0820312 4.78125 0.25 L 3.390625 5.140625 L 2.09375 5.140625 L 3.28125 0.078125 C 2.914062 -0.0234375 2.625 -0.203125 2.40625 -0.453125 C 2.195312 -0.703125 2.09375 -1.019531 2.09375 -1.40625 C 2.09375 -1.832031 2.234375 -2.191406 2.515625 -2.484375 C 2.804688 -2.773438 3.164062 -2.921875 3.59375 -2.921875 Z M 3.59375 -2.921875 "/></g></g></g><g fill="#444444" fill-opacity="1"><g transform="translate(442.319749, 554.451784)"><g/></g></g><g fill="#444444" fill-opacity="1"><g transform="translate(451.571759, 554.451784)"><g><path d="M 13.421875 -25.203125 C 16.597656 -25.203125 19.082031 -24.453125 20.875 -22.953125 C 22.675781 -21.453125 23.578125 -19.367188 23.578125 -16.703125 C 23.578125 -14.066406 22.675781 -12 20.875 -10.5 C 19.082031 -9 16.597656 -8.25 13.421875 -8.25 L 6.234375 -8.25 L 6.234375 0 L 4.390625 0 L 4.390625 -25.203125 Z M 13.421875 -9.90625 C 16.109375 -9.90625 18.160156 -10.488281 19.578125 -11.65625 C 20.992188 -12.832031 21.703125 -14.515625 21.703125 -16.703125 C 21.703125 -18.890625 20.992188 -20.578125 19.578125 -21.765625 C 18.160156 -22.953125 16.109375 -23.546875 13.421875 -23.546875 L 6.234375 -23.546875 L 6.234375 -9.90625 Z M 13.421875 -9.90625 "/></g></g></g><g fill="#444444" fill-opacity="1"><g transform="translate(476.37582, 554.451784)"><g><path d="M 5.546875 -14.6875 C 6.117188 -16.050781 7.015625 -17.097656 8.234375 -17.828125 C 9.460938 -18.566406 10.953125 -18.9375 12.703125 -18.9375 L 12.703125 -17.171875 L 12.28125 -17.203125 C 10.1875 -17.203125 8.550781 -16.546875 7.375 -15.234375 C 6.195312 -13.929688 5.609375 -12.117188 5.609375 -9.796875 L 5.609375 0 L 3.8125 0 L 3.8125 -18.796875 L 5.546875 -18.796875 Z M 5.546875 -14.6875 "/></g></g></g><g fill="#444444" fill-opacity="1"><g transform="translate(490.055857, 554.451784)"><g><path d="M 11.15625 0.140625 C 9.382812 0.140625 7.785156 -0.265625 6.359375 -1.078125 C 4.929688 -1.890625 3.804688 -3.019531 2.984375 -4.46875 C 2.171875 -5.925781 1.765625 -7.566406 1.765625 -9.390625 C 1.765625 -11.210938 2.171875 -12.847656 2.984375 -14.296875 C 3.804688 -15.753906 4.929688 -16.890625 6.359375 -17.703125 C 7.785156 -18.523438 9.382812 -18.9375 11.15625 -18.9375 C 12.9375 -18.9375 14.539062 -18.523438 15.96875 -17.703125 C 17.394531 -16.890625 18.515625 -15.753906 19.328125 -14.296875 C 20.148438 -12.847656 20.5625 -11.210938 20.5625 -9.390625 C 20.5625 -7.566406 20.148438 -5.925781 19.328125 -4.46875 C 18.515625 -3.019531 17.394531 -1.890625 15.96875 -1.078125 C 14.539062 -0.265625 12.9375 0.140625 11.15625 0.140625 Z M 11.15625 -1.46875 C 12.59375 -1.46875 13.878906 -1.800781 15.015625 -2.46875 C 16.160156 -3.144531 17.0625 -4.082031 17.71875 -5.28125 C 18.382812 -6.488281 18.71875 -7.859375 18.71875 -9.390625 C 18.71875 -10.929688 18.382812 -12.300781 17.71875 -13.5 C 17.0625 -14.695312 16.160156 -15.628906 15.015625 -16.296875 C 13.878906 -16.972656 12.59375 -17.3125 11.15625 -17.3125 C 9.71875 -17.3125 8.425781 -16.972656 7.28125 -16.296875 C 6.144531 -15.628906 5.242188 -14.695312 4.578125 -13.5 C 3.921875 -12.300781 3.59375 -10.929688 3.59375 -9.390625 C 3.59375 -7.859375 3.921875 -6.488281 4.578125 -5.28125 C 5.242188 -4.082031 6.144531 -3.144531 7.28125 -2.46875 C 8.425781 -1.800781 9.71875 -1.46875 11.15625 -1.46875 Z M 11.15625 -1.46875 "/></g></g></g><g fill="#444444" fill-opacity="1"><g transform="translate(511.835885, 554.451784)"><g><path d="M 18.90625 -18.796875 L 10.40625 0 L 8.5625 0 L 0.109375 -18.796875 L 2.015625 -18.796875 L 9.5 -1.984375 L 17.0625 -18.796875 Z M 18.90625 -18.796875 "/></g></g></g><g fill="#444444" fill-opacity="1"><g transform="translate(530.303925, 554.451784)"><g><path d="M 19.6875 -8.96875 L 3.53125 -8.96875 C 3.570312 -7.5 3.941406 -6.191406 4.640625 -5.046875 C 5.335938 -3.910156 6.28125 -3.03125 7.46875 -2.40625 C 8.65625 -1.78125 9.992188 -1.46875 11.484375 -1.46875 C 12.703125 -1.46875 13.832031 -1.691406 14.875 -2.140625 C 15.925781 -2.585938 16.800781 -3.242188 17.5 -4.109375 L 18.546875 -2.921875 C 17.722656 -1.929688 16.691406 -1.171875 15.453125 -0.640625 C 14.222656 -0.117188 12.890625 0.140625 11.453125 0.140625 C 9.578125 0.140625 7.90625 -0.265625 6.4375 -1.078125 C 4.976562 -1.890625 3.832031 -3.015625 3 -4.453125 C 2.175781 -5.898438 1.765625 -7.546875 1.765625 -9.390625 C 1.765625 -11.210938 2.15625 -12.847656 2.9375 -14.296875 C 3.71875 -15.753906 4.789062 -16.890625 6.15625 -17.703125 C 7.519531 -18.523438 9.054688 -18.9375 10.765625 -18.9375 C 12.460938 -18.9375 13.988281 -18.535156 15.34375 -17.734375 C 16.707031 -16.929688 17.78125 -15.804688 18.5625 -14.359375 C 19.34375 -12.921875 19.734375 -11.289062 19.734375 -9.46875 Z M 10.765625 -17.359375 C 9.441406 -17.359375 8.25 -17.0625 7.1875 -16.46875 C 6.132812 -15.882812 5.289062 -15.054688 4.65625 -13.984375 C 4.019531 -12.921875 3.65625 -11.71875 3.5625 -10.375 L 17.96875 -10.375 C 17.894531 -11.71875 17.53125 -12.914062 16.875 -13.96875 C 16.226562 -15.019531 15.378906 -15.847656 14.328125 -16.453125 C 13.273438 -17.054688 12.085938 -17.359375 10.765625 -17.359375 Z M 10.765625 -17.359375 "/></g></g></g><g fill="#444444" fill-opacity="1"><g transform="translate(551.795951, 554.451784)"><g><path d="M 13 -18.9375 C 15.351562 -18.9375 17.210938 -18.25 18.578125 -16.875 C 19.941406 -15.507812 20.625 -13.546875 20.625 -10.984375 L 20.625 0 L 18.828125 0 L 18.828125 -10.84375 C 18.828125 -12.945312 18.289062 -14.550781 17.21875 -15.65625 C 16.15625 -16.757812 14.664062 -17.3125 12.75 -17.3125 C 10.539062 -17.3125 8.796875 -16.648438 7.515625 -15.328125 C 6.242188 -14.015625 5.609375 -12.242188 5.609375 -10.015625 L 5.609375 0 L 3.8125 0 L 3.8125 -18.796875 L 5.546875 -18.796875 L 5.546875 -14.71875 C 6.191406 -16.039062 7.15625 -17.070312 8.4375 -17.8125 C 9.726562 -18.5625 11.25 -18.9375 13 -18.9375 Z M 13 -18.9375 "/></g></g></g><g fill="#444444" fill-opacity="1"><g transform="translate(576.024007, 554.451784)"><g><path d="M 3.59375 0.140625 C 3.1875 0.140625 2.832031 -0.00390625 2.53125 -0.296875 C 2.238281 -0.597656 2.09375 -0.96875 2.09375 -1.40625 C 2.09375 -1.832031 2.238281 -2.191406 2.53125 -2.484375 C 2.832031 -2.773438 3.1875 -2.921875 3.59375 -2.921875 C 4.007812 -2.921875 4.363281 -2.773438 4.65625 -2.484375 C 4.957031 -2.191406 5.109375 -1.832031 5.109375 -1.40625 C 5.109375 -0.96875 4.957031 -0.597656 4.65625 -0.296875 C 4.363281 -0.00390625 4.007812 0.140625 3.59375 0.140625 Z M 3.59375 0.140625 "/></g></g></g><path stroke-linecap="butt" transform="matrix(0.75, 0, 0, 0.75, 514.552658, 316.294223)" fill="none" stroke-linejoin="miter" d="M 41.06 60.430622 L 73.22146 60.430622 L 73.22146 205.998338 L 41.06 205.998338 Z M 125.507921 207.097296 C 117.846462 207.097296 111.908962 205.987921 107.69542 203.763963 C 103.513128 201.540004 100.586045 198.336879 98.919378 194.154587 C 97.252711 189.941045 96.419378 184.48792 96.419378 177.790003 L 96.419378 121.373334 L 86.330836 121.373334 L 86.330836 102.154583 L 96.419378 102.154583 L 96.419378 70.524373 L 126.033963 70.524373 L 126.033963 102.154583 L 140.773547 102.154583 L 140.773547 121.373334 L 126.033963 121.373334 L 126.033963 174.89417 C 126.033963 177.790003 126.836046 179.92542 128.445421 181.30042 C 130.086046 182.67542 132.336046 183.36292 135.20063 183.36292 C 137.601672 183.36292 140.23188 183.128545 143.101672 182.659795 L 143.101672 205.64938 C 137.367297 206.612921 131.502713 207.097296 125.507921 207.097296 Z M 125.507921 207.097296 " stroke="#2e8fff" stroke-width="6.738788" stroke-opacity="1" stroke-miterlimit="4"/><g fill="#121212" fill-opacity="1"><g transform="translate(201.633875, 465.469566)"><g><path d="M 12 -162 L 66.40625 -162 C 80.664062 -162 91.328125 -157.960938 98.390625 -149.890625 C 105.460938 -141.828125 109 -130.195312 109 -115 C 109 -97.664062 104.898438 -85.628906 96.703125 -78.890625 C 88.503906 -72.160156 77.003906 -68.796875 62.203125 -68.796875 L 47.796875 -68.796875 L 47.796875 0 L 12 0 Z M 59.796875 -93.796875 C 66.066406 -93.796875 70.234375 -95.460938 72.296875 -98.796875 C 74.367188 -102.128906 75.40625 -107.726562 75.40625 -115.59375 C 75.40625 -122.800781 74.40625 -128.132812 72.40625 -131.59375 C 70.40625 -135.0625 66.132812 -136.796875 59.59375 -136.796875 L 47.796875 -136.796875 L 47.796875 -93.796875 Z M 59.796875 -93.796875 "/></g></g></g><g fill="#121212" fill-opacity="1"><g transform="translate(294.933622, 470.794215)"><g><path d="M 7.140625 -77.90625 L 29.109375 -77.90625 L 29.109375 -64.96875 C 31.804688 -69.726562 34.410156 -73.226562 36.921875 -75.46875 C 39.441406 -77.71875 42.410156 -78.84375 45.828125 -78.84375 C 47.085938 -78.84375 48.207031 -78.707031 49.1875 -78.4375 L 49.1875 -56.609375 C 46.5 -57.679688 44.117188 -58.21875 42.046875 -58.21875 C 37.285156 -58.21875 32.972656 -55.703125 29.109375 -50.671875 L 29.109375 0 L 7.140625 0 Z M 7.140625 -77.90625 "/></g></g></g><g fill="#121212" fill-opacity="1"><g transform="translate(346.548854, 470.794215)"><g><path d="M 32.484375 1.34375 C 23.941406 1.34375 17.265625 -0.8125 12.453125 -5.125 C 7.648438 -9.4375 5.25 -15.769531 5.25 -24.125 L 5.25 -53.78125 C 5.25 -62.132812 7.648438 -68.46875 12.453125 -72.78125 C 17.265625 -77.09375 23.941406 -79.25 32.484375 -79.25 C 41.015625 -79.25 47.707031 -77.066406 52.5625 -72.703125 C 57.414062 -68.347656 59.84375 -62.039062 59.84375 -53.78125 L 59.84375 -24.125 C 59.84375 -15.851562 57.414062 -9.539062 52.5625 -5.1875 C 47.707031 -0.832031 41.015625 1.34375 32.484375 1.34375 Z M 32.609375 -13.203125 C 34.679688 -13.203125 36.117188 -13.988281 36.921875 -15.5625 C 37.734375 -17.132812 38.140625 -19.492188 38.140625 -22.640625 L 38.140625 -55.265625 C 38.140625 -58.410156 37.734375 -60.765625 36.921875 -62.328125 C 36.117188 -63.898438 34.679688 -64.6875 32.609375 -64.6875 C 30.546875 -64.6875 29.085938 -63.878906 28.234375 -62.265625 C 27.378906 -60.648438 26.953125 -58.316406 26.953125 -55.265625 L 26.953125 -22.640625 C 26.953125 -19.492188 27.378906 -17.132812 28.234375 -15.5625 C 29.085938 -13.988281 30.546875 -13.203125 32.609375 -13.203125 Z M 32.609375 -13.203125 "/></g></g></g><g fill="#121212" fill-opacity="1"><g transform="translate(411.640648, 470.794215)"><g><path d="M 1.34375 -77.90625 L 22.375 -77.90625 L 28.84375 -28.171875 L 34.78125 -77.90625 L 55.796875 -77.90625 L 39.765625 0 L 16.984375 0 Z M 1.34375 -77.90625 "/></g></g></g><g fill="#121212" fill-opacity="1"><g transform="translate(468.376974, 470.794215)"><g><path d="M 32.34375 1.34375 C 23.8125 1.34375 17.160156 -0.921875 12.390625 -5.453125 C 7.628906 -9.992188 5.25 -16.398438 5.25 -24.671875 L 5.25 -53.234375 C 5.25 -61.503906 7.628906 -67.90625 12.390625 -72.4375 C 17.160156 -76.976562 23.8125 -79.25 32.34375 -79.25 C 40.96875 -79.25 47.4375 -77.046875 51.75 -72.640625 C 56.0625 -68.242188 58.21875 -61.773438 58.21875 -53.234375 L 58.21875 -37.609375 L 26.953125 -37.609375 L 26.953125 -22.640625 C 26.953125 -17.066406 28.75 -14.28125 32.34375 -14.28125 C 36.125 -14.28125 38.015625 -16.796875 38.015625 -21.828125 L 38.015625 -30.0625 L 58.21875 -30.0625 L 58.21875 -22.515625 C 58.21875 -14.691406 55.945312 -8.757812 51.40625 -4.71875 C 46.875 -0.675781 40.519531 1.34375 32.34375 1.34375 Z M 38.015625 -47.84375 L 38.015625 -55.671875 C 38.015625 -58.546875 37.492188 -60.585938 36.453125 -61.796875 C 35.421875 -63.003906 34.007812 -63.609375 32.21875 -63.609375 C 30.507812 -63.609375 29.203125 -62.9375 28.296875 -61.59375 C 27.398438 -60.25 26.953125 -57.867188 26.953125 -54.453125 L 26.953125 -47.84375 Z M 38.015625 -47.84375 "/></g></g></g></svg>