<svg xmlns="http://www.w3.org/2000/svg" xmlns:xlink="http://www.w3.org/1999/xlink" width="1120" zoomAndPan="magnify" viewBox="0 0 840 839.999992" height="1120" preserveAspectRatio="xMidYMid meet" version="1.0"><defs><g/></defs><g fill="#444444" fill-opacity="1"><g transform="translate(138.351559, 658.221083)"><g><path d="M 23.109375 -14.421875 L 23.109375 0 L 15.53125 0 L 15.53125 -14.296875 L -0.53125 -40.859375 L 7.59375 -40.859375 L 19.5625 -20.953125 L 31.640625 -40.859375 L 39.109375 -40.859375 Z M 23.109375 -14.421875 "/></g></g></g><g fill="#444444" fill-opacity="1"><g transform="translate(173.432517, 658.221083)"><g><path d="M 18.796875 0.40625 C 15.640625 0.40625 12.796875 -0.269531 10.265625 -1.625 C 7.742188 -2.988281 5.769531 -4.882812 4.34375 -7.3125 C 2.925781 -9.75 2.21875 -12.507812 2.21875 -15.59375 C 2.21875 -18.664062 2.925781 -21.40625 4.34375 -23.8125 C 5.769531 -26.226562 7.742188 -28.113281 10.265625 -29.46875 C 12.796875 -30.832031 15.640625 -31.515625 18.796875 -31.515625 C 21.984375 -31.515625 24.84375 -30.832031 27.375 -29.46875 C 29.90625 -28.113281 31.878906 -26.226562 33.296875 -23.8125 C 34.722656 -21.40625 35.4375 -18.664062 35.4375 -15.59375 C 35.4375 -12.507812 34.722656 -9.75 33.296875 -7.3125 C 31.878906 -4.882812 29.90625 -2.988281 27.375 -1.625 C 24.84375 -0.269531 21.984375 0.40625 18.796875 0.40625 Z M 18.796875 -5.84375 C 21.484375 -5.84375 23.703125 -6.734375 25.453125 -8.515625 C 27.203125 -10.304688 28.078125 -12.664062 28.078125 -15.59375 C 28.078125 -18.507812 27.203125 -20.859375 25.453125 -22.640625 C 23.703125 -24.429688 21.484375 -25.328125 18.796875 -25.328125 C 16.109375 -25.328125 13.898438 -24.429688 12.171875 -22.640625 C 10.441406 -20.859375 9.578125 -18.507812 9.578125 -15.59375 C 9.578125 -12.664062 10.441406 -10.304688 12.171875 -8.515625 C 13.898438 -6.734375 16.109375 -5.84375 18.796875 -5.84375 Z M 18.796875 -5.84375 "/></g></g></g><g fill="#444444" fill-opacity="1"><g transform="translate(211.081894, 658.221083)"><g><path d="M 34.96875 -31.171875 L 34.96875 0 L 28.015625 0 L 28.015625 -3.96875 C 26.847656 -2.570312 25.390625 -1.492188 23.640625 -0.734375 C 21.890625 0.0234375 20.003906 0.40625 17.984375 0.40625 C 13.816406 0.40625 10.535156 -0.75 8.140625 -3.0625 C 5.742188 -5.375 4.546875 -8.8125 4.546875 -13.375 L 4.546875 -31.171875 L 11.84375 -31.171875 L 11.84375 -14.359375 C 11.84375 -11.554688 12.472656 -9.460938 13.734375 -8.078125 C 15.003906 -6.703125 16.804688 -6.015625 19.140625 -6.015625 C 21.753906 -6.015625 23.828125 -6.820312 25.359375 -8.4375 C 26.898438 -10.050781 27.671875 -12.375 27.671875 -15.40625 L 27.671875 -31.171875 Z M 34.96875 -31.171875 "/></g></g></g><g fill="#444444" fill-opacity="1"><g transform="translate(250.832625, 658.221083)"><g><path d="M 11.734375 -26.625 C 13.835938 -29.882812 17.535156 -31.515625 22.828125 -31.515625 L 22.828125 -24.578125 C 22.203125 -24.691406 21.632812 -24.75 21.125 -24.75 C 18.289062 -24.75 16.070312 -23.921875 14.46875 -22.265625 C 12.875 -20.617188 12.078125 -18.238281 12.078125 -15.125 L 12.078125 0 L 4.78125 0 L 4.78125 -31.171875 L 11.734375 -31.171875 Z M 11.734375 -26.625 "/></g></g></g><g fill="#444444" fill-opacity="1"><g transform="translate(275.348501, 658.221083)"><g/></g></g><g fill="#444444" fill-opacity="1"><g transform="translate(291.458932, 658.221083)"><g><path d="M 18.15625 0.578125 C 15 0.578125 11.953125 0.132812 9.015625 -0.75 C 6.078125 -1.644531 3.753906 -2.832031 2.046875 -4.3125 L 4.671875 -10.21875 C 6.347656 -8.894531 8.398438 -7.8125 10.828125 -6.96875 C 13.265625 -6.132812 15.707031 -5.71875 18.15625 -5.71875 C 21.1875 -5.71875 23.453125 -6.203125 24.953125 -7.171875 C 26.453125 -8.148438 27.203125 -9.4375 27.203125 -11.03125 C 27.203125 -12.195312 26.78125 -13.160156 25.9375 -13.921875 C 25.101562 -14.679688 24.046875 -15.273438 22.765625 -15.703125 C 21.484375 -16.128906 19.734375 -16.613281 17.515625 -17.15625 C 14.398438 -17.894531 11.878906 -18.632812 9.953125 -19.375 C 8.023438 -20.113281 6.367188 -21.269531 4.984375 -22.84375 C 3.609375 -24.425781 2.921875 -26.5625 2.921875 -29.25 C 2.921875 -31.5 3.53125 -33.546875 4.75 -35.390625 C 5.976562 -37.242188 7.828125 -38.71875 10.296875 -39.8125 C 12.773438 -40.90625 15.800781 -41.453125 19.375 -41.453125 C 21.863281 -41.453125 24.316406 -41.140625 26.734375 -40.515625 C 29.148438 -39.890625 31.234375 -38.992188 32.984375 -37.828125 L 30.59375 -31.9375 C 28.800781 -32.976562 26.929688 -33.769531 24.984375 -34.3125 C 23.035156 -34.863281 21.148438 -35.140625 19.328125 -35.140625 C 16.328125 -35.140625 14.097656 -34.632812 12.640625 -33.625 C 11.179688 -32.613281 10.453125 -31.269531 10.453125 -29.59375 C 10.453125 -28.425781 10.867188 -27.472656 11.703125 -26.734375 C 12.535156 -25.992188 13.59375 -25.410156 14.875 -24.984375 C 16.164062 -24.554688 17.921875 -24.070312 20.140625 -23.53125 C 23.171875 -22.820312 25.660156 -22.085938 27.609375 -21.328125 C 29.554688 -20.578125 31.21875 -19.421875 32.59375 -17.859375 C 33.976562 -16.304688 34.671875 -14.207031 34.671875 -11.5625 C 34.671875 -9.300781 34.054688 -7.253906 32.828125 -5.421875 C 31.609375 -3.597656 29.753906 -2.140625 27.265625 -1.046875 C 24.773438 0.0351562 21.738281 0.578125 18.15625 0.578125 Z M 18.15625 0.578125 "/></g></g></g><g fill="#444444" fill-opacity="1"><g transform="translate(328.174369, 658.221083)"><g><path d="M 17.515625 -13.375 L 12.078125 -8.234375 L 12.078125 0 L 4.78125 0 L 4.78125 -43.3125 L 12.078125 -43.3125 L 12.078125 -17.15625 L 27.203125 -31.171875 L 35.953125 -31.171875 L 22.9375 -18.09375 L 37.1875 0 L 28.3125 0 Z M 17.515625 -13.375 "/></g></g></g><g fill="#444444" fill-opacity="1"><g transform="translate(365.006547, 658.221083)"><g><path d="M 4.78125 -31.171875 L 12.078125 -31.171875 L 12.078125 0 L 4.78125 0 Z M 8.46875 -36.3125 C 7.144531 -36.3125 6.035156 -36.726562 5.140625 -37.5625 C 4.242188 -38.394531 3.796875 -39.4375 3.796875 -40.6875 C 3.796875 -41.9375 4.242188 -42.976562 5.140625 -43.8125 C 6.035156 -44.644531 7.144531 -45.0625 8.46875 -45.0625 C 9.789062 -45.0625 10.898438 -44.660156 11.796875 -43.859375 C 12.691406 -43.066406 13.140625 -42.066406 13.140625 -40.859375 C 13.140625 -39.578125 12.703125 -38.5 11.828125 -37.625 C 10.953125 -36.75 9.832031 -36.3125 8.46875 -36.3125 Z M 8.46875 -36.3125 "/></g></g></g><g fill="#444444" fill-opacity="1"><g transform="translate(381.875801, 658.221083)"><g><path d="M 4.78125 -43.3125 L 12.078125 -43.3125 L 12.078125 0 L 4.78125 0 Z M 4.78125 -43.3125 "/></g></g></g><g fill="#444444" fill-opacity="1"><g transform="translate(398.745055, 658.221083)"><g><path d="M 4.78125 -43.3125 L 12.078125 -43.3125 L 12.078125 0 L 4.78125 0 Z M 4.78125 -43.3125 "/></g></g></g><g fill="#444444" fill-opacity="1"><g transform="translate(415.614309, 658.221083)"><g><path d="M 14.421875 0.40625 C 11.890625 0.40625 9.414062 0.078125 7 -0.578125 C 4.59375 -1.242188 2.664062 -2.082031 1.21875 -3.09375 L 4.03125 -8.640625 C 5.425781 -7.703125 7.109375 -6.953125 9.078125 -6.390625 C 11.046875 -5.828125 12.984375 -5.546875 14.890625 -5.546875 C 19.242188 -5.546875 21.421875 -6.691406 21.421875 -8.984375 C 21.421875 -10.078125 20.863281 -10.835938 19.75 -11.265625 C 18.644531 -11.691406 16.867188 -12.101562 14.421875 -12.5 C 11.847656 -12.882812 9.753906 -13.328125 8.140625 -13.828125 C 6.523438 -14.335938 5.125 -15.222656 3.9375 -16.484375 C 2.75 -17.753906 2.15625 -19.519531 2.15625 -21.78125 C 2.15625 -24.726562 3.390625 -27.085938 5.859375 -28.859375 C 8.335938 -30.628906 11.675781 -31.515625 15.875 -31.515625 C 18.019531 -31.515625 20.160156 -31.269531 22.296875 -30.78125 C 24.441406 -30.300781 26.191406 -29.65625 27.546875 -28.84375 L 24.75 -23.296875 C 22.101562 -24.847656 19.125 -25.625 15.8125 -25.625 C 13.675781 -25.625 12.050781 -25.300781 10.9375 -24.65625 C 9.832031 -24.019531 9.28125 -23.175781 9.28125 -22.125 C 9.28125 -20.957031 9.875 -20.128906 11.0625 -19.640625 C 12.25 -19.148438 14.085938 -18.691406 16.578125 -18.265625 C 19.066406 -17.878906 21.109375 -17.429688 22.703125 -16.921875 C 24.296875 -16.421875 25.664062 -15.566406 26.8125 -14.359375 C 27.96875 -13.148438 28.546875 -11.4375 28.546875 -9.21875 C 28.546875 -6.300781 27.28125 -3.96875 24.75 -2.21875 C 22.21875 -0.46875 18.773438 0.40625 14.421875 0.40625 Z M 14.421875 0.40625 "/></g></g></g><g fill="#444444" fill-opacity="1"><g transform="translate(445.675441, 658.221083)"><g><path d="M 7.1875 -9.28125 C 8.539062 -9.28125 9.664062 -8.832031 10.5625 -7.9375 C 11.457031 -7.039062 11.90625 -5.875 11.90625 -4.4375 C 11.90625 -3.8125 11.816406 -3.15625 11.640625 -2.46875 C 11.472656 -1.789062 11.113281 -0.773438 10.5625 0.578125 L 7.59375 8.8125 L 2.859375 8.8125 L 5.203125 -0.109375 C 4.335938 -0.460938 3.660156 -1.019531 3.171875 -1.78125 C 2.691406 -2.539062 2.453125 -3.425781 2.453125 -4.4375 C 2.453125 -5.875 2.898438 -7.039062 3.796875 -7.9375 C 4.691406 -8.832031 5.820312 -9.28125 7.1875 -9.28125 Z M 7.1875 -9.28125 "/></g></g></g><g fill="#444444" fill-opacity="1"><g transform="translate(459.917979, 658.221083)"><g/></g></g><g fill="#444444" fill-opacity="1"><g transform="translate(476.028421, 658.221083)"><g><path d="M 22.296875 -40.859375 C 25.835938 -40.859375 28.921875 -40.273438 31.546875 -39.109375 C 34.171875 -37.941406 36.179688 -36.269531 37.578125 -34.09375 C 38.984375 -31.914062 39.6875 -29.328125 39.6875 -26.328125 C 39.6875 -23.367188 38.984375 -20.789062 37.578125 -18.59375 C 36.179688 -16.394531 34.171875 -14.710938 31.546875 -13.546875 C 28.921875 -12.378906 25.835938 -11.796875 22.296875 -11.796875 L 13.078125 -11.796875 L 13.078125 0 L 5.484375 0 L 5.484375 -40.859375 Z M 21.953125 -18.21875 C 25.253906 -18.21875 27.757812 -18.914062 29.46875 -20.3125 C 31.1875 -21.71875 32.046875 -23.722656 32.046875 -26.328125 C 32.046875 -28.929688 31.1875 -30.929688 29.46875 -32.328125 C 27.757812 -33.734375 25.253906 -34.4375 21.953125 -34.4375 L 13.078125 -34.4375 L 13.078125 -18.21875 Z M 21.953125 -18.21875 "/></g></g></g><g fill="#444444" fill-opacity="1"><g transform="translate(517.530281, 658.221083)"><g><path d="M 11.734375 -26.625 C 13.835938 -29.882812 17.535156 -31.515625 22.828125 -31.515625 L 22.828125 -24.578125 C 22.203125 -24.691406 21.632812 -24.75 21.125 -24.75 C 18.289062 -24.75 16.070312 -23.921875 14.46875 -22.265625 C 12.875 -20.617188 12.078125 -18.238281 12.078125 -15.125 L 12.078125 0 L 4.78125 0 L 4.78125 -31.171875 L 11.734375 -31.171875 Z M 11.734375 -26.625 "/></g></g></g><g fill="#444444" fill-opacity="1"><g transform="translate(541.462439, 658.221083)"><g><path d="M 18.796875 0.40625 C 15.640625 0.40625 12.796875 -0.269531 10.265625 -1.625 C 7.742188 -2.988281 5.769531 -4.882812 4.34375 -7.3125 C 2.925781 -9.75 2.21875 -12.507812 2.21875 -15.59375 C 2.21875 -18.664062 2.925781 -21.40625 4.34375 -23.8125 C 5.769531 -26.226562 7.742188 -28.113281 10.265625 -29.46875 C 12.796875 -30.832031 15.640625 -31.515625 18.796875 -31.515625 C 21.984375 -31.515625 24.84375 -30.832031 27.375 -29.46875 C 29.90625 -28.113281 31.878906 -26.226562 33.296875 -23.8125 C 34.722656 -21.40625 35.4375 -18.664062 35.4375 -15.59375 C 35.4375 -12.507812 34.722656 -9.75 33.296875 -7.3125 C 31.878906 -4.882812 29.90625 -2.988281 27.375 -1.625 C 24.84375 -0.269531 21.984375 0.40625 18.796875 0.40625 Z M 18.796875 -5.84375 C 21.484375 -5.84375 23.703125 -6.734375 25.453125 -8.515625 C 27.203125 -10.304688 28.078125 -12.664062 28.078125 -15.59375 C 28.078125 -18.507812 27.203125 -20.859375 25.453125 -22.640625 C 23.703125 -24.429688 21.484375 -25.328125 18.796875 -25.328125 C 16.109375 -25.328125 13.898438 -24.429688 12.171875 -22.640625 C 10.441406 -20.859375 9.578125 -18.507812 9.578125 -15.59375 C 9.578125 -12.664062 10.441406 -10.304688 12.171875 -8.515625 C 13.898438 -6.734375 16.109375 -5.84375 18.796875 -5.84375 Z M 18.796875 -5.84375 "/></g></g></g><g fill="#444444" fill-opacity="1"><g transform="translate(578.23624, 658.221083)"><g><path d="M 33.96875 -31.171875 L 20.609375 0 L 13.078125 0 L -0.296875 -31.171875 L 7.296875 -31.171875 L 16.984375 -8.0625 L 26.96875 -31.171875 Z M 33.96875 -31.171875 "/></g></g></g><g fill="#444444" fill-opacity="1"><g transform="translate(611.099185, 658.221083)"><g><path d="M 34.09375 -15.40625 C 34.09375 -14.90625 34.050781 -14.1875 33.96875 -13.25 L 9.515625 -13.25 C 9.941406 -10.957031 11.0625 -9.140625 12.875 -7.796875 C 14.6875 -6.453125 16.929688 -5.78125 19.609375 -5.78125 C 23.035156 -5.78125 25.859375 -6.910156 28.078125 -9.171875 L 31.984375 -4.671875 C 30.585938 -2.992188 28.816406 -1.726562 26.671875 -0.875 C 24.535156 -0.0195312 22.125 0.40625 19.4375 0.40625 C 16.007812 0.40625 12.992188 -0.269531 10.390625 -1.625 C 7.785156 -2.988281 5.769531 -4.882812 4.34375 -7.3125 C 2.925781 -9.75 2.21875 -12.507812 2.21875 -15.59375 C 2.21875 -18.625 2.90625 -21.351562 4.28125 -23.78125 C 5.664062 -26.21875 7.582031 -28.113281 10.03125 -29.46875 C 12.488281 -30.832031 15.253906 -31.515625 18.328125 -31.515625 C 21.367188 -31.515625 24.082031 -30.84375 26.46875 -29.5 C 28.863281 -28.164062 30.734375 -26.28125 32.078125 -23.84375 C 33.421875 -21.414062 34.09375 -18.601562 34.09375 -15.40625 Z M 18.328125 -25.6875 C 15.992188 -25.6875 14.019531 -24.992188 12.40625 -23.609375 C 10.789062 -22.234375 9.804688 -20.394531 9.453125 -18.09375 L 27.140625 -18.09375 C 26.828125 -20.351562 25.875 -22.179688 24.28125 -23.578125 C 22.6875 -24.984375 20.703125 -25.6875 18.328125 -25.6875 Z M 18.328125 -25.6875 "/></g></g></g><g fill="#444444" fill-opacity="1"><g transform="translate(647.406022, 658.221083)"><g><path d="M 22.46875 -31.515625 C 26.40625 -31.515625 29.554688 -30.367188 31.921875 -28.078125 C 34.296875 -25.785156 35.484375 -22.378906 35.484375 -17.859375 L 35.484375 0 L 28.1875 0 L 28.1875 -16.921875 C 28.1875 -19.648438 27.546875 -21.703125 26.265625 -23.078125 C 24.984375 -24.460938 23.15625 -25.15625 20.78125 -25.15625 C 18.09375 -25.15625 15.96875 -24.347656 14.40625 -22.734375 C 12.851562 -21.117188 12.078125 -18.796875 12.078125 -15.765625 L 12.078125 0 L 4.78125 0 L 4.78125 -31.171875 L 11.734375 -31.171875 L 11.734375 -27.140625 C 12.941406 -28.578125 14.457031 -29.664062 16.28125 -30.40625 C 18.113281 -31.144531 20.175781 -31.515625 22.46875 -31.515625 Z M 22.46875 -31.515625 "/></g></g></g><g fill="#444444" fill-opacity="1"><g transform="translate(687.390258, 658.221083)"><g><path d="M 7.125 0.40625 C 5.800781 0.40625 4.671875 -0.046875 3.734375 -0.953125 C 2.796875 -1.867188 2.328125 -3.03125 2.328125 -4.4375 C 2.328125 -5.875 2.785156 -7.039062 3.703125 -7.9375 C 4.617188 -8.832031 5.757812 -9.28125 7.125 -9.28125 C 8.488281 -9.28125 9.625 -8.832031 10.53125 -7.9375 C 11.445312 -7.039062 11.90625 -5.875 11.90625 -4.4375 C 11.90625 -3.03125 11.4375 -1.867188 10.5 -0.953125 C 9.570312 -0.046875 8.445312 0.40625 7.125 0.40625 Z M 7.125 0.40625 "/></g></g></g><g fill="#5271ff" fill-opacity="1"><g transform="translate(609.911333, 518.298802)"><g><path d="M 13.328125 -177.015625 L 52.453125 -177.015625 L 52.453125 0 L 13.328125 0 Z M 13.328125 -177.015625 "/></g></g></g><g fill="#5271ff" fill-opacity="1"><g transform="translate(675.687975, 518.298802)"><g><path d="M 50.265625 1.3125 C 40.941406 1.3125 33.726562 -0.0351562 28.625 -2.734375 C 23.53125 -5.429688 19.960938 -9.328125 17.921875 -14.421875 C 15.878906 -19.523438 14.859375 -26.15625 14.859375 -34.3125 L 14.859375 -102.921875 L 2.625 -102.921875 L 2.625 -126.3125 L 14.859375 -126.3125 L 14.859375 -164.765625 L 50.921875 -164.765625 L 50.921875 -126.3125 L 68.84375 -126.3125 L 68.84375 -102.921875 L 50.921875 -102.921875 L 50.921875 -37.8125 C 50.921875 -34.3125 51.898438 -31.722656 53.859375 -30.046875 C 55.828125 -28.367188 58.5625 -27.53125 62.0625 -27.53125 C 64.976562 -27.53125 68.179688 -27.820312 71.671875 -28.40625 L 71.671875 -0.4375 C 64.679688 0.726562 57.546875 1.3125 50.265625 1.3125 Z M 50.265625 1.3125 "/></g></g></g><g fill="#121212" fill-opacity="1"><g transform="translate(65.927323, 509.681351)"><g><path d="M 19.453125 -262.671875 L 107.65625 -262.671875 C 130.789062 -262.671875 148.085938 -256.128906 159.546875 -243.046875 C 171.003906 -229.972656 176.734375 -211.113281 176.734375 -186.46875 C 176.734375 -158.363281 170.082031 -138.847656 156.78125 -127.921875 C 143.488281 -117.003906 124.84375 -111.546875 100.84375 -111.546875 L 77.5 -111.546875 L 77.5 0 L 19.453125 0 Z M 96.953125 -152.09375 C 107.117188 -152.09375 113.875 -154.789062 117.21875 -160.1875 C 120.570312 -165.59375 122.25 -174.675781 122.25 -187.4375 C 122.25 -199.113281 120.628906 -207.757812 117.390625 -213.375 C 114.148438 -219 107.234375 -221.8125 96.640625 -221.8125 L 77.5 -221.8125 L 77.5 -152.09375 Z M 96.953125 -152.09375 "/></g></g></g><g fill="#121212" fill-opacity="1"><g transform="translate(217.209443, 518.314935)"><g><path d="M 11.578125 -126.3125 L 47.203125 -126.3125 L 47.203125 -105.328125 C 51.578125 -113.054688 55.800781 -118.738281 59.875 -122.375 C 63.957031 -126.019531 68.765625 -127.84375 74.296875 -127.84375 C 76.335938 -127.84375 78.160156 -127.625 79.765625 -127.1875 L 79.765625 -91.78125 C 75.390625 -93.53125 71.53125 -94.40625 68.1875 -94.40625 C 60.457031 -94.40625 53.460938 -90.328125 47.203125 -82.171875 L 47.203125 0 L 11.578125 0 Z M 11.578125 -126.3125 "/></g></g></g><g fill="#121212" fill-opacity="1"><g transform="translate(300.901656, 518.314935)"><g><path d="M 52.671875 2.1875 C 38.828125 2.1875 28.003906 -1.304688 20.203125 -8.296875 C 12.410156 -15.296875 8.515625 -25.566406 8.515625 -39.109375 L 8.515625 -87.1875 C 8.515625 -100.738281 12.410156 -111.007812 20.203125 -118 C 28.003906 -125 38.828125 -128.5 52.671875 -128.5 C 66.503906 -128.5 77.351562 -124.960938 85.21875 -117.890625 C 93.09375 -110.828125 97.03125 -100.59375 97.03125 -87.1875 L 97.03125 -39.109375 C 97.03125 -25.710938 93.09375 -15.476562 85.21875 -8.40625 C 77.351562 -1.34375 66.503906 2.1875 52.671875 2.1875 Z M 52.890625 -21.421875 C 56.234375 -21.421875 58.5625 -22.691406 59.875 -25.234375 C 61.1875 -27.785156 61.84375 -31.613281 61.84375 -36.71875 L 61.84375 -89.59375 C 61.84375 -94.695312 61.1875 -98.519531 59.875 -101.0625 C 58.5625 -103.613281 56.234375 -104.890625 52.890625 -104.890625 C 49.535156 -104.890625 47.164062 -103.578125 45.78125 -100.953125 C 44.394531 -98.335938 43.703125 -94.550781 43.703125 -89.59375 L 43.703125 -36.71875 C 43.703125 -31.613281 44.394531 -27.785156 45.78125 -25.234375 C 47.164062 -22.691406 49.535156 -21.421875 52.890625 -21.421875 Z M 52.890625 -21.421875 "/></g></g></g><g fill="#121212" fill-opacity="1"><g transform="translate(406.445621, 518.314935)"><g><path d="M 2.1875 -126.3125 L 36.28125 -126.3125 L 46.765625 -45.671875 L 56.375 -126.3125 L 90.46875 -126.3125 L 64.46875 0 L 27.53125 0 Z M 2.1875 -126.3125 "/></g></g></g><g fill="#121212" fill-opacity="1"><g transform="translate(498.4415, 518.314935)"><g><path d="M 52.453125 2.1875 C 38.609375 2.1875 27.820312 -1.488281 20.09375 -8.84375 C 12.375 -16.207031 8.515625 -26.585938 8.515625 -39.984375 L 8.515625 -86.3125 C 8.515625 -99.71875 12.375 -110.097656 20.09375 -117.453125 C 27.820312 -124.816406 38.609375 -128.5 52.453125 -128.5 C 66.429688 -128.5 76.914062 -124.925781 83.90625 -117.78125 C 90.90625 -110.644531 94.40625 -100.15625 94.40625 -86.3125 L 94.40625 -60.96875 L 43.703125 -60.96875 L 43.703125 -36.71875 C 43.703125 -27.6875 46.617188 -23.171875 52.453125 -23.171875 C 58.566406 -23.171875 61.625 -27.25 61.625 -35.40625 L 61.625 -48.734375 L 94.40625 -48.734375 L 94.40625 -36.5 C 94.40625 -23.820312 90.722656 -14.203125 83.359375 -7.640625 C 76.003906 -1.085938 65.703125 2.1875 52.453125 2.1875 Z M 61.625 -77.578125 L 61.625 -90.25 C 61.625 -94.914062 60.785156 -98.226562 59.109375 -100.1875 C 57.429688 -102.15625 55.140625 -103.140625 52.234375 -103.140625 C 49.460938 -103.140625 47.347656 -102.046875 45.890625 -99.859375 C 44.429688 -97.679688 43.703125 -93.820312 43.703125 -88.28125 L 43.703125 -77.578125 Z M 61.625 -77.578125 "/></g></g></g></svg>